o front_brake_arm_left
v 1.149999976158142 1.2000000476837158 1.4901161415892261e-9
v 1.199561357498169 1.1933917999267578 -0.01339746080338955
v 1.2358428239822388 1.188554286956787 -0.05000000074505806
v 1.2491227388381958 1.1867836713790894 -0.10000000149011612
v 1.2358428239822388 1.188554286956787 -0.15000000596046448
v 1.199561357498169 1.1933917999267578 -0.18660253286361694
v 1.149999976158142 1.2000000476837158 -0.20000000298023224
v 1.1004385948181152 1.2066081762313843 -0.18660253286361694
v 1.0641571283340454 1.211445689201355 -0.15000000596046448
v 1.0508772134780884 1.2132164239883423 -0.10000000149011612
v 1.0641571283340454 1.211445689201355 -0.05000000074505806
v 1.1004385948181152 1.2066081762313843 -0.01339746080338955
v 1.149999976158142 1.2000000476837158 1.4901161415892261e-9
v 1.100000023841858 0.824999988079071 1.4901161415892261e-9
v 1.1495614051818848 0.8183917999267578 -0.01339746080338955
v 1.1858428716659546 0.8135542869567871 -0.05000000074505806
v 1.1991227865219116 0.8117836117744446 -0.10000000149011612
v 1.1858428716659546 0.8135542869567871 -0.15000000596046448
v 1.1495614051818848 0.8183917999267578 -0.18660253286361694
v 1.100000023841858 0.824999988079071 -0.20000000298023224
v 1.050438642501831 0.8316081762313843 -0.18660253286361694
v 1.0141571760177612 0.8364457488059998 -0.15000000596046448
v 1.0008772611618042 0.8382163643836975 -0.10000000149011612
v 1.0141571760177612 0.8364457488059998 -0.05000000074505806
v 1.050438642501831 0.8316081762313843 -0.01339746080338955
v 1.100000023841858 0.824999988079071 1.4901161415892261e-9
v 1.149999976158142 1.2000000476837158 -0.10000000149011612
v 1.149999976158142 1.2000000476837158 -0.10000000149011612
v 1.149999976158142 1.2000000476837158 -0.10000000149011612
v 1.149999976158142 1.2000000476837158 -0.10000000149011612
v 1.149999976158142 1.2000000476837158 -0.10000000149011612
v 1.149999976158142 1.2000000476837158 -0.10000000149011612
v 1.149999976158142 1.2000000476837158 -0.10000000149011612
v 1.149999976158142 1.2000000476837158 -0.10000000149011612
v 1.149999976158142 1.2000000476837158 -0.10000000149011612
v 1.149999976158142 1.2000000476837158 -0.10000000149011612
v 1.149999976158142 1.2000000476837158 -0.10000000149011612
v 1.149999976158142 1.2000000476837158 -0.10000000149011612
v 1.149999976158142 1.2000000476837158 1.4901161415892261e-9
v 1.199561357498169 1.1933917999267578 -0.01339746080338955
v 1.2358428239822388 1.188554286956787 -0.05000000074505806
v 1.2491227388381958 1.1867836713790894 -0.10000000149011612
v 1.2358428239822388 1.188554286956787 -0.15000000596046448
v 1.199561357498169 1.1933917999267578 -0.18660253286361694
v 1.149999976158142 1.2000000476837158 -0.20000000298023224
v 1.1004385948181152 1.2066081762313843 -0.18660253286361694
v 1.0641571283340454 1.211445689201355 -0.15000000596046448
v 1.0508772134780884 1.2132164239883423 -0.10000000149011612
v 1.0641571283340454 1.211445689201355 -0.05000000074505806
v 1.1004385948181152 1.2066081762313843 -0.01339746080338955
v 1.149999976158142 1.2000000476837158 1.4901161415892261e-9
v 1.100000023841858 0.824999988079071 -0.10000000149011612
v 1.100000023841858 0.824999988079071 -0.10000000149011612
v 1.100000023841858 0.824999988079071 -0.10000000149011612
v 1.100000023841858 0.824999988079071 -0.10000000149011612
v 1.100000023841858 0.824999988079071 -0.10000000149011612
v 1.100000023841858 0.824999988079071 -0.10000000149011612
v 1.100000023841858 0.824999988079071 -0.10000000149011612
v 1.100000023841858 0.824999988079071 -0.10000000149011612
v 1.100000023841858 0.824999988079071 -0.10000000149011612
v 1.100000023841858 0.824999988079071 -0.10000000149011612
v 1.100000023841858 0.824999988079071 -0.10000000149011612
v 1.100000023841858 0.824999988079071 -0.10000000149011612
v 1.100000023841858 0.824999988079071 1.4901161415892261e-9
v 1.1495614051818848 0.8183917999267578 -0.01339746080338955
v 1.1858428716659546 0.8135542869567871 -0.05000000074505806
v 1.1991227865219116 0.8117836117744446 -0.10000000149011612
v 1.1858428716659546 0.8135542869567871 -0.15000000596046448
v 1.1495614051818848 0.8183917999267578 -0.18660253286361694
v 1.100000023841858 0.824999988079071 -0.20000000298023224
v 1.050438642501831 0.8316081762313843 -0.18660253286361694
v 1.0141571760177612 0.8364457488059998 -0.15000000596046448
v 1.0008772611618042 0.8382163643836975 -0.10000000149011612
v 1.0141571760177612 0.8364457488059998 -0.05000000074505806
v 1.050438642501831 0.8316081762313843 -0.01339746080338955
v 1.100000023841858 0.824999988079071 1.4901161415892261e-9
vt 0 1
vt 0.0833333358168602 1
vt 0.1666666716337204 1
vt 0.25 1
vt 0.3333333432674408 1
vt 0.4166666567325592 1
vt 0.5 1
vt 0.5833333134651184 1
vt 0.6666666865348816 1
vt 0.75 1
vt 0.8333333134651184 1
vt 0.9166666865348816 1
vt 1 1
vt 0 0
vt 0.0833333358168602 0
vt 0.1666666716337204 0
vt 0.25 0
vt 0.3333333432674408 0
vt 0.4166666567325592 0
vt 0.5 0
vt 0.5833333134651184 0
vt 0.6666666865348816 0
vt 0.75 0
vt 0.8333333134651184 0
vt 0.9166666865348816 0
vt 1 0
vt 0.5 0.5
vt 0.5 0.5
vt 0.5 0.5
vt 0.5 0.5
vt 0.5 0.5
vt 0.5 0.5
vt 0.5 0.5
vt 0.5 0.5
vt 0.5 0.5
vt 0.5 0.5
vt 0.5 0.5
vt 0.5 0.5
vt 1 0.5
vt 0.9330127239227295 0.75
vt 0.75 0.9330127239227295
vt 0.5 1
vt 0.25 0.9330127239227295
vt 0.0669872984290123 0.75
vt 0 0.5
vt 0.0669872984290123 0.25
vt 0.25 0.0669872984290123
vt 0.5 0
vt 0.75 0.0669872984290123
vt 0.9330127239227295 0.25
vt 1 0.5
vt 0.5 0.5
vt 0.5 0.5
vt 0.5 0.5
vt 0.5 0.5
vt 0.5 0.5
vt 0.5 0.5
vt 0.5 0.5
vt 0.5 0.5
vt 0.5 0.5
vt 0.5 0.5
vt 0.5 0.5
vt 0.5 0.5
vt 1 0.5
vt 0.9330127239227295 0.25
vt 0.75 0.0669872984290123
vt 0.5 0
vt 0.25 0.0669872984290123
vt 0.0669872984290123 0.25
vt 0 0.5
vt 0.0669872984290123 0.75
vt 0.25 0.9330127239227295
vt 0.5 1
vt 0.75 0.9330127239227295
vt 0.9330127239227295 0.75
vt 1 0.5
vn 0 0 1
vn 0.4956139661471234 -0.0660818596694229 0.8660253947676988
vn 0.8584285417085159 -0.11445713839776342 0.500000002249986
vn 0.9912279013333404 -0.13216371521072512 6.123234117815573e-17
vn 0.8584285417085159 -0.11445713839776342 -0.500000002249986
vn 0.4956139661471234 -0.0660818596694229 -0.8660253947676988
vn 1.2139040925338192e-16 -1.6185388451904664e-17 -1
vn -0.4956139661471234 0.0660818596694229 -0.8660253947676988
vn -0.8584285417085159 0.11445713839776342 -0.500000002249986
vn -0.9912279013333404 0.13216371521072512 -1.836970102995777e-16
vn -0.8584285417085159 0.11445713839776342 0.500000002249986
vn -0.4956139661471234 0.0660818596694229 0.8660253947676988
vn -2.4278081850676383e-16 3.237077690380933e-17 1
vn 0 0 1
vn 0.4956139661471234 -0.0660818596694229 0.8660253947676988
vn 0.8584285417085159 -0.11445713839776342 0.500000002249986
vn 0.9912279013333404 -0.13216371521072512 6.123234117815573e-17
vn 0.8584285417085159 -0.11445713839776342 -0.500000002249986
vn 0.4956139661471234 -0.0660818596694229 -0.8660253947676988
vn 1.2139040925338192e-16 -1.6185388451904664e-17 -1
vn -0.4956139661471234 0.0660818596694229 -0.8660253947676988
vn -0.8584285417085159 0.11445713839776342 -0.500000002249986
vn -0.9912279013333404 0.13216371521072512 -1.836970102995777e-16
vn -0.8584285417085159 0.11445713839776342 0.500000002249986
vn -0.4956139661471234 0.0660818596694229 0.8660253947676988
vn -2.4278081850676383e-16 3.237077690380933e-17 1
vn 0.13216371521072512 0.9912279013333404 0
vn 0.13216371521072512 0.9912279013333404 0
vn 0.13216371521072512 0.9912279013333404 0
vn 0.13216371521072512 0.9912279013333404 0
vn 0.13216371521072512 0.9912279013333404 0
vn 0.13216371521072512 0.9912279013333404 0
vn 0.13216371521072512 0.9912279013333404 0
vn 0.13216371521072512 0.9912279013333404 0
vn 0.13216371521072512 0.9912279013333404 0
vn 0.13216371521072512 0.9912279013333404 0
vn 0.13216371521072512 0.9912279013333404 0
vn 0.13216371521072512 0.9912279013333404 0
vn 0.13216371521072512 0.9912279013333404 0
vn 0.13216371521072512 0.9912279013333404 0
vn 0.13216371521072512 0.9912279013333404 0
vn 0.13216371521072512 0.9912279013333404 0
vn 0.13216371521072512 0.9912279013333404 0
vn 0.13216371521072512 0.9912279013333404 0
vn 0.13216371521072512 0.9912279013333404 0
vn 0.13216371521072512 0.9912279013333404 0
vn 0.13216371521072512 0.9912279013333404 0
vn 0.13216371521072512 0.9912279013333404 0
vn 0.13216371521072512 0.9912279013333404 0
vn 0.13216371521072512 0.9912279013333404 0
vn 0.13216371521072512 0.9912279013333404 0
vn -0.13216371521072512 -0.9912279013333404 0
vn -0.13216371521072512 -0.9912279013333404 0
vn -0.13216371521072512 -0.9912279013333404 0
vn -0.13216371521072512 -0.9912279013333404 0
vn -0.13216371521072512 -0.9912279013333404 0
vn -0.13216371521072512 -0.9912279013333404 0
vn -0.13216371521072512 -0.9912279013333404 0
vn -0.13216371521072512 -0.9912279013333404 0
vn -0.13216371521072512 -0.9912279013333404 0
vn -0.13216371521072512 -0.9912279013333404 0
vn -0.13216371521072512 -0.9912279013333404 0
vn -0.13216371521072512 -0.9912279013333404 0
vn -0.13216371521072512 -0.9912279013333404 0
vn -0.13216371521072512 -0.9912279013333404 0
vn -0.13216371521072512 -0.9912279013333404 0
vn -0.13216371521072512 -0.9912279013333404 0
vn -0.13216371521072512 -0.9912279013333404 0
vn -0.13216371521072512 -0.9912279013333404 0
vn -0.13216371521072512 -0.9912279013333404 0
vn -0.13216371521072512 -0.9912279013333404 0
vn -0.13216371521072512 -0.9912279013333404 0
vn -0.13216371521072512 -0.9912279013333404 0
vn -0.13216371521072512 -0.9912279013333404 0
vn -0.13216371521072512 -0.9912279013333404 0
vn -0.13216371521072512 -0.9912279013333404 0
f 1/1/1 14/14/14 2/2/2
f 14/14/14 15/15/15 2/2/2
f 2/2/2 15/15/15 3/3/3
f 15/15/15 16/16/16 3/3/3
f 3/3/3 16/16/16 4/4/4
f 16/16/16 17/17/17 4/4/4
f 4/4/4 17/17/17 5/5/5
f 17/17/17 18/18/18 5/5/5
f 5/5/5 18/18/18 6/6/6
f 18/18/18 19/19/19 6/6/6
f 6/6/6 19/19/19 7/7/7
f 19/19/19 20/20/20 7/7/7
f 7/7/7 20/20/20 8/8/8
f 20/20/20 21/21/21 8/8/8
f 8/8/8 21/21/21 9/9/9
f 21/21/21 22/22/22 9/9/9
f 9/9/9 22/22/22 10/10/10
f 22/22/22 23/23/23 10/10/10
f 10/10/10 23/23/23 11/11/11
f 23/23/23 24/24/24 11/11/11
f 11/11/11 24/24/24 12/12/12
f 24/24/24 25/25/25 12/12/12
f 12/12/12 25/25/25 13/13/13
f 25/25/25 26/26/26 13/13/13
f 39/39/39 40/40/40 27/27/27
f 40/40/40 41/41/41 28/28/28
f 41/41/41 42/42/42 29/29/29
f 42/42/42 43/43/43 30/30/30
f 43/43/43 44/44/44 31/31/31
f 44/44/44 45/45/45 32/32/32
f 45/45/45 46/46/46 33/33/33
f 46/46/46 47/47/47 34/34/34
f 47/47/47 48/48/48 35/35/35
f 48/48/48 49/49/49 36/36/36
f 49/49/49 50/50/50 37/37/37
f 50/50/50 51/51/51 38/38/38
f 65/65/65 64/64/64 52/52/52
f 66/66/66 65/65/65 53/53/53
f 67/67/67 66/66/66 54/54/54
f 68/68/68 67/67/67 55/55/55
f 69/69/69 68/68/68 56/56/56
f 70/70/70 69/69/69 57/57/57
f 71/71/71 70/70/70 58/58/58
f 72/72/72 71/71/71 59/59/59
f 73/73/73 72/72/72 60/60/60
f 74/74/74 73/73/73 61/61/61
f 75/75/75 74/74/74 62/62/62
f 76/76/76 75/75/75 63/63/63
