o saddle_nose
v 5.9604645663569045e-9 1.5 0
v 5.9604645663569045e-9 1.5 0
v 5.9604645663569045e-9 1.5 0
v 5.9604645663569045e-9 1.5 0
v 5.9604645663569045e-9 1.5 0
v 5.9604645663569045e-9 1.5 0
v 5.9604645663569045e-9 1.5 0
v 5.9604645663569045e-9 1.5 0
v 5.9604645663569045e-9 1.5 0
v 5.9604645663569045e-9 1.5 0
v 5.9604645663569045e-9 1.5 0
v 5.9604645663569045e-9 1.5 0
v 5.9604645663569045e-9 1.5 0
v -0.30000001192092896 1.5 0.20000000298023224
v -0.30000001192092896 1.399999976158142 0.17320507764816284
v -0.30000001192092896 1.3267948627471924 0.10000000149011612
v -0.30000001192092896 1.2999999523162842 1.2246467698671066e-17
v -0.30000001192092896 1.3267948627471924 -0.10000000149011612
v -0.30000001192092896 1.399999976158142 -0.17320507764816284
v -0.30000001192092896 1.5 -0.20000000298023224
v -0.30000001192092896 1.600000023841858 -0.17320507764816284
v -0.30000001192092896 1.6732051372528076 -0.10000000149011612
v -0.30000001192092896 1.7000000476837158 -3.6739405577555036e-17
v -0.30000001192092896 1.6732051372528076 0.10000000149011612
v -0.30000001192092896 1.600000023841858 0.17320507764816284
v -0.30000001192092896 1.5 0.20000000298023224
v -0.30000001192092896 1.5 0
v -0.30000001192092896 1.5 0
v -0.30000001192092896 1.5 0
v -0.30000001192092896 1.5 0
v -0.30000001192092896 1.5 0
v -0.30000001192092896 1.5 0
v -0.30000001192092896 1.5 0
v -0.30000001192092896 1.5 0
v -0.30000001192092896 1.5 0
v -0.30000001192092896 1.5 0
v -0.30000001192092896 1.5 0
v -0.30000001192092896 1.5 0
v -0.30000001192092896 1.5 0.20000000298023224
v -0.30000001192092896 1.399999976158142 0.17320507764816284
v -0.30000001192092896 1.3267948627471924 0.10000000149011612
v -0.30000001192092896 1.2999999523162842 1.2246467698671066e-17
v -0.30000001192092896 1.3267948627471924 -0.10000000149011612
v -0.30000001192092896 1.399999976158142 -0.17320507764816284
v -0.30000001192092896 1.5 -0.20000000298023224
v -0.30000001192092896 1.600000023841858 -0.17320507764816284
v -0.30000001192092896 1.6732051372528076 -0.10000000149011612
v -0.30000001192092896 1.7000000476837158 -3.6739405577555036e-17
v -0.30000001192092896 1.6732051372528076 0.10000000149011612
v -0.30000001192092896 1.600000023841858 0.17320507764816284
v -0.30000001192092896 1.5 0.20000000298023224
vt 0 1
vt 0.0833333358168602 1
vt 0.1666666716337204 1
vt 0.25 1
vt 0.3333333432674408 1
vt 0.4166666567325592 1
vt 0.5 1
vt 0.5833333134651184 1
vt 0.6666666865348816 1
vt 0.75 1
vt 0.8333333134651184 1
vt 0.9166666865348816 1
vt 1 1
vt 0 0
vt 0.0833333358168602 0
vt 0.1666666716337204 0
vt 0.25 0
vt 0.3333333432674408 0
vt 0.4166666567325592 0
vt 0.5 0
vt 0.5833333134651184 0
vt 0.6666666865348816 0
vt 0.75 0
vt 0.8333333134651184 0
vt 0.9166666865348816 0
vt 1 0
vt 0.5 0.5
vt 0.5 0.5
vt 0.5 0.5
vt 0.5 0.5
vt 0.5 0.5
vt 0.5 0.5
vt 0.5 0.5
vt 0.5 0.5
vt 0.5 0.5
vt 0.5 0.5
vt 0.5 0.5
vt 0.5 0.5
vt 1 0.5
vt 0.9330127239227295 0.25
vt 0.75 0.0669872984290123
vt 0.5 0
vt 0.25 0.0669872984290123
vt 0.0669872984290123 0.25
vt 0 0.5
vt 0.0669872984290123 0.75
vt 0.25 0.9330127239227295
vt 0.5 1
vt 0.75 0.9330127239227295
vt 0.9330127239227295 0.75
vt 1 0.5
vn 0.5547001824703113 1.2316818286846304e-16 0.8320503035077886
vn 0.554700187993337 -0.41602515589616373 0.72057669342113
vn 0.554700187993337 -0.72057669342113 0.41602515589616373
vn 0.5547001824703113 -0.8320503035077886 5.0948385353135694e-17
vn 0.554700187993337 -0.72057669342113 -0.41602515589616373
vn 0.554700187993337 -0.41602515589616373 -0.72057669342113
vn 0.5547001824703113 2.1271412162191666e-17 -0.8320503035077886
vn 0.554700187993337 0.41602515589616373 -0.72057669342113
vn 0.554700187993337 0.72057669342113 -0.41602515589616373
vn 0.5547001824703113 0.8320503035077886 -1.5284515936812946e-16
vn 0.554700187993337 0.72057669342113 0.41602515589616373
vn 0.554700187993337 0.41602515589616373 0.72057669342113
vn 0.5547001824703113 3.269617242810058e-16 0.8320503035077886
vn 0.5547001824703113 1.2316818286846304e-16 0.8320503035077886
vn 0.554700187993337 -0.41602515589616373 0.72057669342113
vn 0.554700187993337 -0.72057669342113 0.41602515589616373
vn 0.5547001824703113 -0.8320503035077886 5.0948385353135694e-17
vn 0.554700187993337 -0.72057669342113 -0.41602515589616373
vn 0.554700187993337 -0.41602515589616373 -0.72057669342113
vn 0.5547001824703113 2.1271412162191666e-17 -0.8320503035077886
vn 0.554700187993337 0.41602515589616373 -0.72057669342113
vn 0.554700187993337 0.72057669342113 -0.41602515589616373
vn 0.5547001824703113 0.8320503035077886 -1.5284515936812946e-16
vn 0.554700187993337 0.72057669342113 0.41602515589616373
vn 0.554700187993337 0.41602515589616373 0.72057669342113
vn 0.5547001824703113 3.269617242810058e-16 0.8320503035077886
vn -1 -2.220446049250313e-16 0
vn -1 -2.220446049250313e-16 0
vn -1 -2.220446049250313e-16 0
vn -1 -2.220446049250313e-16 0
vn -1 -2.220446049250313e-16 0
vn -1 -2.220446049250313e-16 0
vn -1 -2.220446049250313e-16 0
vn -1 -2.220446049250313e-16 0
vn -1 -2.220446049250313e-16 0
vn -1 -2.220446049250313e-16 0
vn -1 -2.220446049250313e-16 0
vn -1 -2.220446049250313e-16 0
vn -1 -2.220446049250313e-16 0
vn -1 -2.220446049250313e-16 0
vn -1 -2.220446049250313e-16 0
vn -1 -2.220446049250313e-16 0
vn -1 -2.220446049250313e-16 0
vn -1 -2.220446049250313e-16 0
vn -1 -2.220446049250313e-16 0
vn -1 -2.220446049250313e-16 0
vn -1 -2.220446049250313e-16 0
vn -1 -2.220446049250313e-16 0
vn -1 -2.220446049250313e-16 0
vn -1 -2.220446049250313e-16 0
vn -1 -2.220446049250313e-16 0
f 14/14/14 15/15/15 2/2/2
f 15/15/15 16/16/16 3/3/3
f 16/16/16 17/17/17 4/4/4
f 17/17/17 18/18/18 5/5/5
f 18/18/18 19/19/19 6/6/6
f 19/19/19 20/20/20 7/7/7
f 20/20/20 21/21/21 8/8/8
f 21/21/21 22/22/22 9/9/9
f 22/22/22 23/23/23 10/10/10
f 23/23/23 24/24/24 11/11/11
f 24/24/24 25/25/25 12/12/12
f 25/25/25 26/26/26 13/13/13
f 40/40/40 39/39/39 27/27/27
f 41/41/41 40/40/40 28/28/28
f 42/42/42 41/41/41 29/29/29
f 43/43/43 42/42/42 30/30/30
f 44/44/44 43/43/43 31/31/31
f 45/45/45 44/44/44 32/32/32
f 46/46/46 45/45/45 33/33/33
f 47/47/47 46/46/46 34/34/34
f 48/48/48 47/47/47 35/35/35
f 49/49/49 48/48/48 36/36/36
f 50/50/50 49/49/49 37/37/37
f 51/51/51 50/50/50 38/38/38
