o chain_upper_run
v -8.809996066005965e-10 1.2999999523162842 0.3499999940395355
v 0.042874645441770554 1.3257248401641846 0.3366025388240814
v 0.07426106184720993 1.3445566892623901 0.30000001192092896
v 0.08574929088354111 1.3514496088027954 0.25
v 0.07426106184720993 1.3445566892623901 0.20000000298023224
v 0.042874645441770554 1.3257248401641846 0.16339746117591858
v -8.809996066005965e-10 1.2999999523162842 0.15000000596046448
v -0.04287464916706085 1.2742751836776733 0.16339746117591858
v -0.07426106184720993 1.2554433345794678 0.20000000298023224
v -0.0857492983341217 1.2485504150390625 0.25
v -0.07426106184720993 1.2554433345794678 0.30000001192092896
v -0.04287464916706085 1.2742751836776733 0.3366025388240814
v -8.809996066005965e-10 1.2999999523162842 0.3499999940395355
v 0.30000001192092896 0.800000011920929 0.3499999940395355
v 0.3428746461868286 0.8257247805595398 0.3366025388240814
v 0.3742610514163971 0.8445566296577454 0.30000001192092896
v 0.38574928045272827 0.8514495491981506 0.25
v 0.3742610514163971 0.8445566296577454 0.20000000298023224
v 0.3428746461868286 0.8257247805595398 0.16339746117591858
v 0.30000001192092896 0.800000011920929 0.15000000596046448
v 0.2571253478527069 0.7742751836776733 0.16339746117591858
v 0.22573894262313843 0.7554433345794678 0.20000000298023224
v 0.21425071358680725 0.7485504150390625 0.25
v 0.22573894262313843 0.7554433345794678 0.30000001192092896
v 0.2571253478527069 0.7742751836776733 0.3366025388240814
v 0.30000001192092896 0.800000011920929 0.3499999940395355
v -8.809996066005965e-10 1.2999999523162842 0.25
v -8.809996066005965e-10 1.2999999523162842 0.25
v -8.809996066005965e-10 1.2999999523162842 0.25
v -8.809996066005965e-10 1.2999999523162842 0.25
v -8.809996066005965e-10 1.2999999523162842 0.25
v -8.809996066005965e-10 1.2999999523162842 0.25
v -8.809996066005965e-10 1.2999999523162842 0.25
v -8.809996066005965e-10 1.2999999523162842 0.25
v -8.809996066005965e-10 1.2999999523162842 0.25
v -8.809996066005965e-10 1.2999999523162842 0.25
v -8.809996066005965e-10 1.2999999523162842 0.25
v -8.809996066005965e-10 1.2999999523162842 0.25
v -8.809996066005965e-10 1.2999999523162842 0.3499999940395355
v 0.042874645441770554 1.3257248401641846 0.3366025388240814
v 0.07426106184720993 1.3445566892623901 0.30000001192092896
v 0.08574929088354111 1.3514496088027954 0.25
v 0.07426106184720993 1.3445566892623901 0.20000000298023224
v 0.042874645441770554 1.3257248401641846 0.16339746117591858
v -8.809996066005965e-10 1.2999999523162842 0.15000000596046448
v -0.04287464916706085 1.2742751836776733 0.16339746117591858
v -0.07426106184720993 1.2554433345794678 0.20000000298023224
v -0.0857492983341217 1.2485504150390625 0.25
v -0.07426106184720993 1.2554433345794678 0.30000001192092896
v -0.04287464916706085 1.2742751836776733 0.3366025388240814
v -8.809996066005965e-10 1.2999999523162842 0.3499999940395355
v 0.30000001192092896 0.800000011920929 0.25
v 0.30000001192092896 0.800000011920929 0.25
v 0.30000001192092896 0.800000011920929 0.25
v 0.30000001192092896 0.800000011920929 0.25
v 0.30000001192092896 0.800000011920929 0.25
v 0.30000001192092896 0.800000011920929 0.25
v 0.30000001192092896 0.800000011920929 0.25
v 0.30000001192092896 0.800000011920929 0.25
v 0.30000001192092896 0.800000011920929 0.25
v 0.30000001192092896 0.800000011920929 0.25
v 0.30000001192092896 0.800000011920929 0.25
v 0.30000001192092896 0.800000011920929 0.25
v 0.30000001192092896 0.800000011920929 0.3499999940395355
v 0.3428746461868286 0.8257247805595398 0.3366025388240814
v 0.3742610514163971 0.8445566296577454 0.30000001192092896
v 0.38574928045272827 0.8514495491981506 0.25
v 0.3742610514163971 0.8445566296577454 0.20000000298023224
v 0.3428746461868286 0.8257247805595398 0.16339746117591858
v 0.30000001192092896 0.800000011920929 0.15000000596046448
v 0.2571253478527069 0.7742751836776733 0.16339746117591858
v 0.22573894262313843 0.7554433345794678 0.20000000298023224
v 0.21425071358680725 0.7485504150390625 0.25
v 0.22573894262313843 0.7554433345794678 0.30000001192092896
v 0.2571253478527069 0.7742751836776733 0.3366025388240814
v 0.30000001192092896 0.800000011920929 0.3499999940395355
vt 0 1
vt 0.0833333358168602 1
vt 0.1666666716337204 1
vt 0.25 1
vt 0.3333333432674408 1
vt 0.4166666567325592 1
vt 0.5 1
vt 0.5833333134651184 1
vt 0.6666666865348816 1
vt 0.75 1
vt 0.8333333134651184 1
vt 0.9166666865348816 1
vt 1 1
vt 0 0
vt 0.0833333358168602 0
vt 0.1666666716337204 0
vt 0.25 0
vt 0.3333333432674408 0
vt 0.4166666567325592 0
vt 0.5 0
vt 0.5833333134651184 0
vt 0.6666666865348816 0
vt 0.75 0
vt 0.8333333134651184 0
vt 0.9166666865348816 0
vt 1 0
vt 0.5 0.5
vt 0.5 0.5
vt 0.5 0.5
vt 0.5 0.5
vt 0.5 0.5
vt 0.5 0.5
vt 0.5 0.5
vt 0.5 0.5
vt 0.5 0.5
vt 0.5 0.5
vt 0.5 0.5
vt 0.5 0.5
vt 1 0.5
vt 0.9330127239227295 0.75
vt 0.75 0.9330127239227295
vt 0.5 1
vt 0.25 0.9330127239227295
vt 0.0669872984290123 0.75
vt 0 0.5
vt 0.0669872984290123 0.25
vt 0.25 0.0669872984290123
vt 0.5 0
vt 0.75 0.0669872984290123
vt 0.9330127239227295 0.25
vt 1 0.5
vt 0.5 0.5
vt 0.5 0.5
vt 0.5 0.5
vt 0.5 0.5
vt 0.5 0.5
vt 0.5 0.5
vt 0.5 0.5
vt 0.5 0.5
vt 0.5 0.5
vt 0.5 0.5
vt 0.5 0.5
vt 0.5 0.5
vt 1 0.5
vt 0.9330127239227295 0.25
vt 0.75 0.0669872984290123
vt 0.5 0
vt 0.25 0.0669872984290123
vt 0.0669872984290123 0.25
vt 0 0.5
vt 0.0669872984290123 0.75
vt 0.25 0.9330127239227295
vt 0.5 1
vt 0.75 0.9330127239227295
vt 0.9330127239227295 0.75
vt 1 0.5
vn 0 0 1
vn 0.42874646591450055 0.25724789743009396 0.8660253964137666
vn 0.7426106492954817 0.4455663955377536 0.5000000107204371
vn 0.8574929362310107 0.5144957378967482 6.123234352146837e-17
vn 0.7426106492954817 0.4455663955377536 -0.5000000107204371
vn 0.42874646591450055 0.25724789743009396 -0.8660253964137666
vn 1.0501260370174639e-16 6.30075582505809e-17 -1
vn -0.42874646591450055 -0.25724789743009396 -0.8660253964137666
vn -0.7426106492954817 -0.4455663955377536 -0.5000000107204371
vn -0.8574929362310107 -0.5144957378967482 -1.836970173295151e-16
vn -0.7426106492954817 -0.4455663955377536 0.5000000107204371
vn -0.42874646591450055 -0.25724789743009396 0.8660253964137666
vn -2.1002520740349279e-16 -1.260151165011618e-16 1
vn 0 0 1
vn 0.42874646591450055 0.25724789743009396 0.8660253964137666
vn 0.7426106492954817 0.4455663955377536 0.5000000107204371
vn 0.8574929362310107 0.5144957378967482 6.123234352146837e-17
vn 0.7426106492954817 0.4455663955377536 -0.5000000107204371
vn 0.42874646591450055 0.25724789743009396 -0.8660253964137666
vn 1.0501260370174639e-16 6.30075582505809e-17 -1
vn -0.42874646591450055 -0.25724789743009396 -0.8660253964137666
vn -0.7426106492954817 -0.4455663955377536 -0.5000000107204371
vn -0.8574929362310107 -0.5144957378967482 -1.836970173295151e-16
vn -0.7426106492954817 -0.4455663955377536 0.5000000107204371
vn -0.42874646591450055 -0.25724789743009396 0.8660253964137666
vn -2.1002520740349279e-16 -1.260151165011618e-16 1
vn -0.5144957378967482 0.8574929362310107 0
vn -0.5144957378967482 0.8574929362310107 0
vn -0.5144957378967482 0.8574929362310107 0
vn -0.5144957378967482 0.8574929362310107 0
vn -0.5144957378967482 0.8574929362310107 0
vn -0.5144957378967482 0.8574929362310107 0
vn -0.5144957378967482 0.8574929362310107 0
vn -0.5144957378967482 0.8574929362310107 0
vn -0.5144957378967482 0.8574929362310107 0
vn -0.5144957378967482 0.8574929362310107 0
vn -0.5144957378967482 0.8574929362310107 0
vn -0.5144957378967482 0.8574929362310107 0
vn -0.5144957378967482 0.8574929362310107 0
vn -0.5144957378967482 0.8574929362310107 0
vn -0.5144957378967482 0.8574929362310107 0
vn -0.5144957378967482 0.8574929362310107 0
vn -0.5144957378967482 0.8574929362310107 0
vn -0.5144957378967482 0.8574929362310107 0
vn -0.5144957378967482 0.8574929362310107 0
vn -0.5144957378967482 0.8574929362310107 0
vn -0.5144957378967482 0.8574929362310107 0
vn -0.5144957378967482 0.8574929362310107 0
vn -0.5144957378967482 0.8574929362310107 0
vn -0.5144957378967482 0.8574929362310107 0
vn -0.5144957378967482 0.8574929362310107 0
vn 0.5144957378967482 -0.8574929362310107 0
vn 0.5144957378967482 -0.8574929362310107 0
vn 0.5144957378967482 -0.8574929362310107 0
vn 0.5144957378967482 -0.8574929362310107 0
vn 0.5144957378967482 -0.8574929362310107 0
vn 0.5144957378967482 -0.8574929362310107 0
vn 0.5144957378967482 -0.8574929362310107 0
vn 0.5144957378967482 -0.8574929362310107 0
vn 0.5144957378967482 -0.8574929362310107 0
vn 0.5144957378967482 -0.8574929362310107 0
vn 0.5144957378967482 -0.8574929362310107 0
vn 0.5144957378967482 -0.8574929362310107 0
vn 0.5144957378967482 -0.8574929362310107 0
vn 0.5144957378967482 -0.8574929362310107 0
vn 0.5144957378967482 -0.8574929362310107 0
vn 0.5144957378967482 -0.8574929362310107 0
vn 0.5144957378967482 -0.8574929362310107 0
vn 0.5144957378967482 -0.8574929362310107 0
vn 0.5144957378967482 -0.8574929362310107 0
vn 0.5144957378967482 -0.8574929362310107 0
vn 0.5144957378967482 -0.8574929362310107 0
vn 0.5144957378967482 -0.8574929362310107 0
vn 0.5144957378967482 -0.8574929362310107 0
vn 0.5144957378967482 -0.8574929362310107 0
vn 0.5144957378967482 -0.8574929362310107 0
f 1/1/1 14/14/14 2/2/2
f 14/14/14 15/15/15 2/2/2
f 2/2/2 15/15/15 3/3/3
f 15/15/15 16/16/16 3/3/3
f 3/3/3 16/16/16 4/4/4
f 16/16/16 17/17/17 4/4/4
f 4/4/4 17/17/17 5/5/5
f 17/17/17 18/18/18 5/5/5
f 5/5/5 18/18/18 6/6/6
f 18/18/18 19/19/19 6/6/6
f 6/6/6 19/19/19 7/7/7
f 19/19/19 20/20/20 7/7/7
f 7/7/7 20/20/20 8/8/8
f 20/20/20 21/21/21 8/8/8
f 8/8/8 21/21/21 9/9/9
f 21/21/21 22/22/22 9/9/9
f 9/9/9 22/22/22 10/10/10
f 22/22/22 23/23/23 10/10/10
f 10/10/10 23/23/23 11/11/11
f 23/23/23 24/24/24 11/11/11
f 11/11/11 24/24/24 12/12/12
f 24/24/24 25/25/25 12/12/12
f 12/12/12 25/25/25 13/13/13
f 25/25/25 26/26/26 13/13/13
f 39/39/39 40/40/40 27/27/27
f 40/40/40 41/41/41 28/28/28
f 41/41/41 42/42/42 29/29/29
f 42/42/42 43/43/43 30/30/30
f 43/43/43 44/44/44 31/31/31
f 44/44/44 45/45/45 32/32/32
f 45/45/45 46/46/46 33/33/33
f 46/46/46 47/47/47 34/34/34
f 47/47/47 48/48/48 35/35/35
f 48/48/48 49/49/49 36/36/36
f 49/49/49 50/50/50 37/37/37
f 50/50/50 51/51/51 38/38/38
f 65/65/65 64/64/64 52/52/52
f 66/66/66 65/65/65 53/53/53
f 67/67/67 66/66/66 54/54/54
f 68/68/68 67/67/67 55/55/55
f 69/69/69 68/68/68 56/56/56
f 70/70/70 69/69/69 57/57/57
f 71/71/71 70/70/70 58/58/58
f 72/72/72 71/71/71 59/59/59
f 73/73/73 72/72/72 60/60/60
f 74/74/74 73/73/73 61/61/61
f 75/75/75 74/74/74 62/62/62
f 76/76/76 75/75/75 63/63/63
