o down_tube
v 0.29999998211860657 0.44999998807907104 0.11999999731779099
v 0.2655922472476959 0.49915391206741333 0.10392304509878159
v 0.24040403962135315 0.5351370573043823 0.05999999865889549
v 0.23118451237678528 0.5483078360557556 7.347880950074885e-18
v 0.24040403962135315 0.5351370573043823 -0.05999999865889549
v 0.2655922472476959 0.49915391206741333 -0.10392304509878159
v 0.29999998211860657 0.44999998807907104 -0.11999999731779099
v 0.3344077169895172 0.40084606409072876 -0.10392304509878159
v 0.3595959544181824 0.36486291885375977 -0.05999999865889549
v 0.36881548166275024 0.35169216990470886 -2.204364202304404e-17
v 0.3595959544181824 0.36486291885375977 0.05999999865889549
v 0.3344077169895172 0.40084606409072876 0.10392304509878159
v 0.29999998211860657 0.44999998807907104 0.11999999731779099
v 1.0499999523162842 0.9750000238418579 0.11999999731779099
v 1.0155922174453735 1.0241539478302002 0.10392304509878159
v 0.9904040694236755 1.0601370334625244 0.05999999865889549
v 0.9811845421791077 1.0733078718185425 7.347880950074885e-18
v 0.9904040694236755 1.0601370334625244 -0.05999999865889549
v 1.0155922174453735 1.0241539478302002 -0.10392304509878159
v 1.0499999523162842 0.9750000238418579 -0.11999999731779099
v 1.0844078063964844 0.9258460998535156 -0.10392304509878159
v 1.1095960140228271 0.8898629546165466 -0.05999999865889549
v 1.118815541267395 0.8766921758651733 -2.204364202304404e-17
v 1.1095960140228271 0.8898629546165466 0.05999999865889549
v 1.0844078063964844 0.9258460998535156 0.10392304509878159
v 1.0499999523162842 0.9750000238418579 0.11999999731779099
v 0.29999998211860657 0.44999998807907104 0
v 0.29999998211860657 0.44999998807907104 0
v 0.29999998211860657 0.44999998807907104 0
v 0.29999998211860657 0.44999998807907104 0
v 0.29999998211860657 0.44999998807907104 0
v 0.29999998211860657 0.44999998807907104 0
v 0.29999998211860657 0.44999998807907104 0
v 0.29999998211860657 0.44999998807907104 0
v 0.29999998211860657 0.44999998807907104 0
v 0.29999998211860657 0.44999998807907104 0
v 0.29999998211860657 0.44999998807907104 0
v 0.29999998211860657 0.44999998807907104 0
v 0.29999998211860657 0.44999998807907104 0.11999999731779099
v 0.2655922472476959 0.49915391206741333 0.10392304509878159
v 0.24040403962135315 0.5351370573043823 0.05999999865889549
v 0.23118451237678528 0.5483078360557556 7.347880950074885e-18
v 0.24040403962135315 0.5351370573043823 -0.05999999865889549
v 0.2655922472476959 0.49915391206741333 -0.10392304509878159
v 0.29999998211860657 0.44999998807907104 -0.11999999731779099
v 0.3344077169895172 0.40084606409072876 -0.10392304509878159
v 0.3595959544181824 0.36486291885375977 -0.05999999865889549
v 0.36881548166275024 0.35169216990470886 -2.204364202304404e-17
v 0.3595959544181824 0.36486291885375977 0.05999999865889549
v 0.3344077169895172 0.40084606409072876 0.10392304509878159
v 0.29999998211860657 0.44999998807907104 0.11999999731779099
v 1.0499999523162842 0.9750000238418579 0
v 1.0499999523162842 0.9750000238418579 0
v 1.0499999523162842 0.9750000238418579 0
v 1.0499999523162842 0.9750000238418579 0
v 1.0499999523162842 0.9750000238418579 0
v 1.0499999523162842 0.9750000238418579 0
v 1.0499999523162842 0.9750000238418579 0
v 1.0499999523162842 0.9750000238418579 0
v 1.0499999523162842 0.9750000238418579 0
v 1.0499999523162842 0.9750000238418579 0
v 1.0499999523162842 0.9750000238418579 0
v 1.0499999523162842 0.9750000238418579 0
v 1.0499999523162842 0.9750000238418579 0.11999999731779099
v 1.0155922174453735 1.0241539478302002 0.10392304509878159
v 0.9904040694236755 1.0601370334625244 0.05999999865889549
v 0.9811845421791077 1.0733078718185425 7.347880950074885e-18
v 0.9904040694236755 1.0601370334625244 -0.05999999865889549
v 1.0155922174453735 1.0241539478302002 -0.10392304509878159
v 1.0499999523162842 0.9750000238418579 -0.11999999731779099
v 1.0844078063964844 0.9258460998535156 -0.10392304509878159
v 1.1095960140228271 0.8898629546165466 -0.05999999865889549
v 1.118815541267395 0.8766921758651733 -2.204364202304404e-17
v 1.1095960140228271 0.8898629546165466 0.05999999865889549
v 1.0844078063964844 0.9258460998535156 0.10392304509878159
v 1.0499999523162842 0.9750000238418579 0.11999999731779099
vt 0 1
vt 0.0833333358168602 1
vt 0.1666666716337204 1
vt 0.25 1
vt 0.3333333432674408 1
vt 0.4166666567325592 1
vt 0.5 1
vt 0.5833333134651184 1
vt 0.6666666865348816 1
vt 0.75 1
vt 0.8333333134651184 1
vt 0.9166666865348816 1
vt 1 1
vt 0 0
vt 0.0833333358168602 0
vt 0.1666666716337204 0
vt 0.25 0
vt 0.3333333432674408 0
vt 0.4166666567325592 0
vt 0.5 0
vt 0.5833333134651184 0
vt 0.6666666865348816 0
vt 0.75 0
vt 0.8333333134651184 0
vt 0.9166666865348816 0
vt 1 0
vt 0.5 0.5
vt 0.5 0.5
vt 0.5 0.5
vt 0.5 0.5
vt 0.5 0.5
vt 0.5 0.5
vt 0.5 0.5
vt 0.5 0.5
vt 0.5 0.5
vt 0.5 0.5
vt 0.5 0.5
vt 0.5 0.5
vt 1 0.5
vt 0.9330127239227295 0.75
vt 0.75 0.9330127239227295
vt 0.5 1
vt 0.25 0.9330127239227295
vt 0.0669872984290123 0.75
vt 0 0.5
vt 0.0669872984290123 0.25
vt 0.25 0.0669872984290123
vt 0.5 0
vt 0.75 0.0669872984290123
vt 0.9330127239227295 0.25
vt 1 0.5
vt 0.5 0.5
vt 0.5 0.5
vt 0.5 0.5
vt 0.5 0.5
vt 0.5 0.5
vt 0.5 0.5
vt 0.5 0.5
vt 0.5 0.5
vt 0.5 0.5
vt 0.5 0.5
vt 0.5 0.5
vt 0.5 0.5
vt 1 0.5
vt 0.9330127239227295 0.25
vt 0.75 0.0669872984290123
vt 0.5 0
vt 0.25 0.0669872984290123
vt 0.0669872984290123 0.25
vt 0 0.5
vt 0.0669872984290123 0.75
vt 0.25 0.9330127239227295
vt 0.5 1
vt 0.75 0.9330127239227295
vt 0.9330127239227295 0.75
vt 1 0.5
vn 0 0 1
vn -0.2867311860519462 0.40961596730178484 0.8660253958612687
vn -0.49663296860475814 0.7094756438905208 0.5000000052209559
vn -0.5734623563642632 0.819231912118386 6.123234148743923e-17
vn -0.49663296860475814 0.7094756438905208 -0.5000000052209559
vn -0.2867311860519462 0.40961596730178484 -0.8660253958612687
vn -7.022888470283823e-17 1.0032697625621321e-16 -1
vn 0.2867311860519462 -0.40961596730178484 -0.8660253958612687
vn 0.49663296860475814 -0.7094756438905208 -0.5000000052209559
vn 0.5734623563642632 -0.819231912118386 -1.836970112274281e-16
vn 0.49663296860475814 -0.7094756438905208 0.5000000052209559
vn 0.2867311860519462 -0.40961596730178484 0.8660253958612687
vn 1.4045776940567646e-16 -2.0065395251242643e-16 1
vn 0 0 1
vn -0.2867311860519462 0.40961596730178484 0.8660253958612687
vn -0.49663296860475814 0.7094756438905208 0.5000000052209559
vn -0.5734623563642632 0.819231912118386 6.123234148743923e-17
vn -0.49663296860475814 0.7094756438905208 -0.5000000052209559
vn -0.2867311860519462 0.40961596730178484 -0.8660253958612687
vn -7.022888470283823e-17 1.0032697625621321e-16 -1
vn 0.2867311860519462 -0.40961596730178484 -0.8660253958612687
vn 0.49663296860475814 -0.7094756438905208 -0.5000000052209559
vn 0.5734623563642632 -0.819231912118386 -1.836970112274281e-16
vn 0.49663296860475814 -0.7094756438905208 0.5000000052209559
vn 0.2867311860519462 -0.40961596730178484 0.8660253958612687
vn 1.4045776940567646e-16 -2.0065395251242643e-16 1
vn -0.819231912118386 -0.5734623563642632 0
vn -0.819231912118386 -0.5734623563642632 0
vn -0.819231912118386 -0.5734623563642632 0
vn -0.819231912118386 -0.5734623563642632 0
vn -0.819231912118386 -0.5734623563642632 0
vn -0.819231912118386 -0.5734623563642632 0
vn -0.819231912118386 -0.5734623563642632 0
vn -0.819231912118386 -0.5734623563642632 0
vn -0.819231912118386 -0.5734623563642632 0
vn -0.819231912118386 -0.5734623563642632 0
vn -0.819231912118386 -0.5734623563642632 0
vn -0.819231912118386 -0.5734623563642632 0
vn -0.819231912118386 -0.5734623563642632 0
vn -0.819231912118386 -0.5734623563642632 0
vn -0.819231912118386 -0.5734623563642632 0
vn -0.819231912118386 -0.5734623563642632 0
vn -0.819231912118386 -0.5734623563642632 0
vn -0.819231912118386 -0.5734623563642632 0
vn -0.819231912118386 -0.5734623563642632 0
vn -0.819231912118386 -0.5734623563642632 0
vn -0.819231912118386 -0.5734623563642632 0
vn -0.819231912118386 -0.5734623563642632 0
vn -0.819231912118386 -0.5734623563642632 0
vn -0.819231912118386 -0.5734623563642632 0
vn -0.819231912118386 -0.5734623563642632 0
vn 0.819231912118386 0.5734623563642632 0
vn 0.819231912118386 0.5734623563642632 0
vn 0.819231912118386 0.5734623563642632 0
vn 0.819231912118386 0.5734623563642632 0
vn 0.819231912118386 0.5734623563642632 0
vn 0.819231912118386 0.5734623563642632 0
vn 0.819231912118386 0.5734623563642632 0
vn 0.819231912118386 0.5734623563642632 0
vn 0.819231912118386 0.5734623563642632 0
vn 0.819231912118386 0.5734623563642632 0
vn 0.819231912118386 0.5734623563642632 0
vn 0.819231912118386 0.5734623563642632 0
vn 0.819231912118386 0.5734623563642632 0
vn 0.819231912118386 0.5734623563642632 0
vn 0.819231912118386 0.5734623563642632 0
vn 0.819231912118386 0.5734623563642632 0
vn 0.819231912118386 0.5734623563642632 0
vn 0.819231912118386 0.5734623563642632 0
vn 0.819231912118386 0.5734623563642632 0
vn 0.819231912118386 0.5734623563642632 0
vn 0.819231912118386 0.5734623563642632 0
vn 0.819231912118386 0.5734623563642632 0
vn 0.819231912118386 0.5734623563642632 0
vn 0.819231912118386 0.5734623563642632 0
vn 0.819231912118386 0.5734623563642632 0
f 1/1/1 14/14/14 2/2/2
f 14/14/14 15/15/15 2/2/2
f 2/2/2 15/15/15 3/3/3
f 15/15/15 16/16/16 3/3/3
f 3/3/3 16/16/16 4/4/4
f 16/16/16 17/17/17 4/4/4
f 4/4/4 17/17/17 5/5/5
f 17/17/17 18/18/18 5/5/5
f 5/5/5 18/18/18 6/6/6
f 18/18/18 19/19/19 6/6/6
f 6/6/6 19/19/19 7/7/7
f 19/19/19 20/20/20 7/7/7
f 7/7/7 20/20/20 8/8/8
f 20/20/20 21/21/21 8/8/8
f 8/8/8 21/21/21 9/9/9
f 21/21/21 22/22/22 9/9/9
f 9/9/9 22/22/22 10/10/10
f 22/22/22 23/23/23 10/10/10
f 10/10/10 23/23/23 11/11/11
f 23/23/23 24/24/24 11/11/11
f 11/11/11 24/24/24 12/12/12
f 24/24/24 25/25/25 12/12/12
f 12/12/12 25/25/25 13/13/13
f 25/25/25 26/26/26 13/13/13
f 39/39/39 40/40/40 27/27/27
f 40/40/40 41/41/41 28/28/28
f 41/41/41 42/42/42 29/29/29
f 42/42/42 43/43/43 30/30/30
f 43/43/43 44/44/44 31/31/31
f 44/44/44 45/45/45 32/32/32
f 45/45/45 46/46/46 33/33/33
f 46/46/46 47/47/47 34/34/34
f 47/47/47 48/48/48 35/35/35
f 48/48/48 49/49/49 36/36/36
f 49/49/49 50/50/50 37/37/37
f 50/50/50 51/51/51 38/38/38
f 65/65/65 64/64/64 52/52/52
f 66/66/66 65/65/65 53/53/53
f 67/67/67 66/66/66 54/54/54
f 68/68/68 67/67/67 55/55/55
f 69/69/69 68/68/68 56/56/56
f 70/70/70 69/69/69 57/57/57
f 71/71/71 70/70/70 58/58/58
f 72/72/72 71/71/71 59/59/59
f 73/73/73 72/72/72 60/60/60
f 74/74/74 73/73/73 61/61/61
f 75/75/75 74/74/74 62/62/62
f 76/76/76 75/75/75 63/63/63
