o seatstay_left
v -0.08191312104463577 1.0823392868041992 -0.3051740527153015
v -0.03327878937125206 1.0937641859054565 -0.34208807349205017
v 0.02427256852388382 1.0800648927688599 -0.361025869846344
v 0.07532010972499847 1.044912338256836 -0.35691311955451965
v 0.10618568956851959 0.9977256059646606 -0.33085182309150696
v 0.10859889537096024 0.9511482119560242 -0.28982505202293396
v 0.08191312104463577 0.917660653591156 -0.24482594430446625
v 0.03327878564596176 0.9062358736991882 -0.20791193842887878
v -0.024272572249174118 0.9199351072311401 -0.18897412717342377
v -0.07532011717557907 0.9550876021385193 -0.1930868774652481
v -0.10618568956851959 1.0022743940353394 -0.219148188829422
v -0.10859890282154083 1.048851728439331 -0.2601749300956726
v -0.08191312104463577 1.0823392868041992 -0.3051740527153015
v 0.06808687746524811 1.3323392868041992 -0.030174054205417633
v 0.11672121286392212 1.3437641859054565 -0.0670880600810051
v 0.1742725670337677 1.3300648927688599 -0.08602587133646011
v 0.22532011568546295 1.294912338256836 -0.08191311359405518
v 0.2561856806278229 1.2477256059646606 -0.055851809680461884
v 0.2585988938808441 1.201148271560669 -0.014825056307017803
v 0.23191311955451965 1.1676607131958008 0.03017406165599823
v 0.18327878415584564 1.1562358140945435 0.0670880675315857
v 0.12572742998600006 1.1699351072311401 0.08602587878704071
v 0.0746798887848854 1.205087661743164 0.08191312104463577
v 0.04381430894136429 1.2522743940353394 0.05585181713104248
v 0.041401103138923645 1.298851728439331 0.0148250637575984
v 0.06808687746524811 1.3323392868041992 -0.030174054205417633
v -1.9526475991682446e-9 1 -0.2750000059604645
v -1.9526475991682446e-9 1 -0.2750000059604645
v -1.9526475991682446e-9 1 -0.2750000059604645
v -1.9526475991682446e-9 1 -0.2750000059604645
v -1.9526475991682446e-9 1 -0.2750000059604645
v -1.9526475991682446e-9 1 -0.2750000059604645
v -1.9526475991682446e-9 1 -0.2750000059604645
v -1.9526475991682446e-9 1 -0.2750000059604645
v -1.9526475991682446e-9 1 -0.2750000059604645
v -1.9526475991682446e-9 1 -0.2750000059604645
v -1.9526475991682446e-9 1 -0.2750000059604645
v -1.9526475991682446e-9 1 -0.2750000059604645
v -0.08191312104463577 1.0823392868041992 -0.3051740527153015
v -0.03327878937125206 1.0937641859054565 -0.34208807349205017
v 0.02427256852388382 1.0800648927688599 -0.361025869846344
v 0.07532010972499847 1.044912338256836 -0.35691311955451965
v 0.10618568956851959 0.9977256059646606 -0.33085182309150696
v 0.10859889537096024 0.9511482119560242 -0.28982505202293396
v 0.08191312104463577 0.917660653591156 -0.24482594430446625
v 0.03327878564596176 0.9062358736991882 -0.20791193842887878
v -0.024272572249174118 0.9199351072311401 -0.18897412717342377
v -0.07532011717557907 0.9550876021385193 -0.1930868774652481
v -0.10618568956851959 1.0022743940353394 -0.219148188829422
v -0.10859890282154083 1.048851728439331 -0.2601749300956726
v -0.08191312104463577 1.0823392868041992 -0.3051740527153015
v 0.15000000596046448 1.25 3.5798539688158826e-9
v 0.15000000596046448 1.25 3.5798539688158826e-9
v 0.15000000596046448 1.25 3.5798539688158826e-9
v 0.15000000596046448 1.25 3.5798539688158826e-9
v 0.15000000596046448 1.25 3.5798539688158826e-9
v 0.15000000596046448 1.25 3.5798539688158826e-9
v 0.15000000596046448 1.25 3.5798539688158826e-9
v 0.15000000596046448 1.25 3.5798539688158826e-9
v 0.15000000596046448 1.25 3.5798539688158826e-9
v 0.15000000596046448 1.25 3.5798539688158826e-9
v 0.15000000596046448 1.25 3.5798539688158826e-9
v 0.15000000596046448 1.25 3.5798539688158826e-9
v 0.06808687746524811 1.3323392868041992 -0.030174054205417633
v 0.11672121286392212 1.3437641859054565 -0.0670880600810051
v 0.1742725670337677 1.3300648927688599 -0.08602587133646011
v 0.22532011568546295 1.294912338256836 -0.08191311359405518
v 0.2561856806278229 1.2477256059646606 -0.055851809680461884
v 0.2585988938808441 1.201148271560669 -0.014825056307017803
v 0.23191311955451965 1.1676607131958008 0.03017406165599823
v 0.18327878415584564 1.1562358140945435 0.0670880675315857
v 0.12572742998600006 1.1699351072311401 0.08602587878704071
v 0.0746798887848854 1.205087661743164 0.08191312104463577
v 0.04381430894136429 1.2522743940353394 0.05585181713104248
v 0.041401103138923645 1.298851728439331 0.0148250637575984
v 0.06808687746524811 1.3323392868041992 -0.030174054205417633
vt 0 1
vt 0.0833333358168602 1
vt 0.1666666716337204 1
vt 0.25 1
vt 0.3333333432674408 1
vt 0.4166666567325592 1
vt 0.5 1
vt 0.5833333134651184 1
vt 0.6666666865348816 1
vt 0.75 1
vt 0.8333333134651184 1
vt 0.9166666865348816 1
vt 1 1
vt 0 0
vt 0.0833333358168602 0
vt 0.1666666716337204 0
vt 0.25 0
vt 0.3333333432674408 0
vt 0.4166666567325592 0
vt 0.5 0
vt 0.5833333134651184 0
vt 0.6666666865348816 0
vt 0.75 0
vt 0.8333333134651184 0
vt 0.9166666865348816 0
vt 1 0
vt 0.5 0.5
vt 0.5 0.5
vt 0.5 0.5
vt 0.5 0.5
vt 0.5 0.5
vt 0.5 0.5
vt 0.5 0.5
vt 0.5 0.5
vt 0.5 0.5
vt 0.5 0.5
vt 0.5 0.5
vt 0.5 0.5
vt 1 0.5
vt 0.9330127239227295 0.75
vt 0.75 0.9330127239227295
vt 0.5 1
vt 0.25 0.9330127239227295
vt 0.0669872984290123 0.75
vt 0 0.5
vt 0.0669872984290123 0.25
vt 0.25 0.0669872984290123
vt 0.5 0
vt 0.75 0.0669872984290123
vt 0.9330127239227295 0.25
vt 1 0.5
vt 0.5 0.5
vt 0.5 0.5
vt 0.5 0.5
vt 0.5 0.5
vt 0.5 0.5
vt 0.5 0.5
vt 0.5 0.5
vt 0.5 0.5
vt 0.5 0.5
vt 0.5 0.5
vt 0.5 0.5
vt 0.5 0.5
vt 1 0.5
vt 0.9330127239227295 0.25
vt 0.75 0.0669872984290123
vt 0.5 0
vt 0.25 0.0669872984290123
vt 0.0669872984290123 0.25
vt 0 0.5
vt 0.0669872984290123 0.75
vt 0.25 0.9330127239227295
vt 0.5 1
vt 0.75 0.9330127239227295
vt 0.9330127239227295 0.75
vt 1 0.5
vn -0.6826093635103784 0.686161144605786 -0.25145047321735875
vn -0.2773232179062361 0.7813678431904533 -0.5590671931333742
vn 0.2022714166992514 0.667207658013514 -0.7168822881579651
vn 0.6276676013619857 0.374269721200016 -0.6826093743813906
vn 0.8848807806655439 -0.01895349657937223 -0.4654318091580696
vn 0.9049908583337557 -0.4070981173940412 -0.123542175578058
vn 0.6826093635103784 -0.686161144605786 0.25145047321735875
vn 0.2773232179062361 -0.7813678431904533 0.5590671931333742
vn -0.2022714166992514 -0.667207658013514 0.7168822881579651
vn -0.6276676013619857 -0.374269721200016 0.6826093743813906
vn -0.8848807806655439 0.01895349657937223 0.4654318091580696
vn -0.9049908583337557 0.4070981173940412 0.123542175578058
vn -0.6826093635103784 0.686161144605786 -0.25145047321735875
vn -0.6826093635103784 0.686161144605786 -0.25145047321735875
vn -0.2773232179062361 0.7813678431904533 -0.5590671931333742
vn 0.2022714166992514 0.667207658013514 -0.7168822881579651
vn 0.6276676013619857 0.374269721200016 -0.6826093743813906
vn 0.8848807806655439 -0.01895349657937223 -0.4654318091580696
vn 0.9049908583337557 -0.4070981173940412 -0.123542175578058
vn 0.6826093635103784 -0.686161144605786 0.25145047321735875
vn 0.2773232179062361 -0.7813678431904533 0.5590671931333742
vn -0.2022714166992514 -0.667207658013514 0.7168822881579651
vn -0.6276676013619857 -0.374269721200016 0.6826093743813906
vn -0.8848807806655439 0.01895349657937223 0.4654318091580696
vn -0.9049908583337557 0.4070981173940412 0.123542175578058
vn -0.6826093635103784 0.686161144605786 -0.25145047321735875
vn -0.37426971693108324 -0.6237828615518054 -0.6861611477069859
vn -0.37426971693108324 -0.6237828615518054 -0.6861611477069859
vn -0.37426971693108324 -0.6237828615518054 -0.6861611477069859
vn -0.37426971693108324 -0.6237828615518054 -0.6861611477069859
vn -0.37426971693108324 -0.6237828615518054 -0.6861611477069859
vn -0.37426971693108324 -0.6237828615518054 -0.6861611477069859
vn -0.37426971693108324 -0.6237828615518054 -0.6861611477069859
vn -0.37426971693108324 -0.6237828615518054 -0.6861611477069859
vn -0.37426971693108324 -0.6237828615518054 -0.6861611477069859
vn -0.37426971693108324 -0.6237828615518054 -0.6861611477069859
vn -0.37426971693108324 -0.6237828615518054 -0.6861611477069859
vn -0.37426971693108324 -0.6237828615518054 -0.6861611477069859
vn -0.37426971693108324 -0.6237828615518054 -0.6861611477069859
vn -0.37426971693108324 -0.6237828615518054 -0.6861611477069859
vn -0.37426971693108324 -0.6237828615518054 -0.6861611477069859
vn -0.37426971693108324 -0.6237828615518054 -0.6861611477069859
vn -0.37426971693108324 -0.6237828615518054 -0.6861611477069859
vn -0.37426971693108324 -0.6237828615518054 -0.6861611477069859
vn -0.37426971693108324 -0.6237828615518054 -0.6861611477069859
vn -0.37426971693108324 -0.6237828615518054 -0.6861611477069859
vn -0.37426971693108324 -0.6237828615518054 -0.6861611477069859
vn -0.37426971693108324 -0.6237828615518054 -0.6861611477069859
vn -0.37426971693108324 -0.6237828615518054 -0.6861611477069859
vn -0.37426971693108324 -0.6237828615518054 -0.6861611477069859
vn -0.37426971693108324 -0.6237828615518054 -0.6861611477069859
vn 0.37426971693108324 0.6237828615518054 0.6861611477069859
vn 0.37426971693108324 0.6237828615518054 0.6861611477069859
vn 0.37426971693108324 0.6237828615518054 0.6861611477069859
vn 0.37426971693108324 0.6237828615518054 0.6861611477069859
vn 0.37426971693108324 0.6237828615518054 0.6861611477069859
vn 0.37426971693108324 0.6237828615518054 0.6861611477069859
vn 0.37426971693108324 0.6237828615518054 0.6861611477069859
vn 0.37426971693108324 0.6237828615518054 0.6861611477069859
vn 0.37426971693108324 0.6237828615518054 0.6861611477069859
vn 0.37426971693108324 0.6237828615518054 0.6861611477069859
vn 0.37426971693108324 0.6237828615518054 0.6861611477069859
vn 0.37426971693108324 0.6237828615518054 0.6861611477069859
vn 0.37426971693108324 0.6237828615518054 0.6861611477069859
vn 0.37426971693108324 0.6237828615518054 0.6861611477069859
vn 0.37426971693108324 0.6237828615518054 0.6861611477069859
vn 0.37426971693108324 0.6237828615518054 0.6861611477069859
vn 0.37426971693108324 0.6237828615518054 0.6861611477069859
vn 0.37426971693108324 0.6237828615518054 0.6861611477069859
vn 0.37426971693108324 0.6237828615518054 0.6861611477069859
vn 0.37426971693108324 0.6237828615518054 0.6861611477069859
vn 0.37426971693108324 0.6237828615518054 0.6861611477069859
vn 0.37426971693108324 0.6237828615518054 0.6861611477069859
vn 0.37426971693108324 0.6237828615518054 0.6861611477069859
vn 0.37426971693108324 0.6237828615518054 0.6861611477069859
vn 0.37426971693108324 0.6237828615518054 0.6861611477069859
f 1/1/1 14/14/14 2/2/2
f 14/14/14 15/15/15 2/2/2
f 2/2/2 15/15/15 3/3/3
f 15/15/15 16/16/16 3/3/3
f 3/3/3 16/16/16 4/4/4
f 16/16/16 17/17/17 4/4/4
f 4/4/4 17/17/17 5/5/5
f 17/17/17 18/18/18 5/5/5
f 5/5/5 18/18/18 6/6/6
f 18/18/18 19/19/19 6/6/6
f 6/6/6 19/19/19 7/7/7
f 19/19/19 20/20/20 7/7/7
f 7/7/7 20/20/20 8/8/8
f 20/20/20 21/21/21 8/8/8
f 8/8/8 21/21/21 9/9/9
f 21/21/21 22/22/22 9/9/9
f 9/9/9 22/22/22 10/10/10
f 22/22/22 23/23/23 10/10/10
f 10/10/10 23/23/23 11/11/11
f 23/23/23 24/24/24 11/11/11
f 11/11/11 24/24/24 12/12/12
f 24/24/24 25/25/25 12/12/12
f 12/12/12 25/25/25 13/13/13
f 25/25/25 26/26/26 13/13/13
f 39/39/39 40/40/40 27/27/27
f 40/40/40 41/41/41 28/28/28
f 41/41/41 42/42/42 29/29/29
f 42/42/42 43/43/43 30/30/30
f 43/43/43 44/44/44 31/31/31
f 44/44/44 45/45/45 32/32/32
f 45/45/45 46/46/46 33/33/33
f 46/46/46 47/47/47 34/34/34
f 47/47/47 48/48/48 35/35/35
f 48/48/48 49/49/49 36/36/36
f 49/49/49 50/50/50 37/37/37
f 50/50/50 51/51/51 38/38/38
f 65/65/65 64/64/64 52/52/52
f 66/66/66 65/65/65 53/53/53
f 67/67/67 66/66/66 54/54/54
f 68/68/68 67/67/67 55/55/55
f 69/69/69 68/68/68 56/56/56
f 70/70/70 69/69/69 57/57/57
f 71/71/71 70/70/70 58/58/58
f 72/72/72 71/71/71 59/59/59
f 73/73/73 72/72/72 60/60/60
f 74/74/74 73/73/73 61/61/61
f 75/75/75 74/74/74 62/62/62
f 76/76/76 75/75/75 63/63/63
