o drawer_2_handle
v -1.0800000429153442 4.099999904632568 2.25
v 1.0800000429153442 4.099999904632568 2.25
v -1.0800000429153442 4.150000095367432 2.236602544784546
v 1.0800000429153442 4.099999904632568 2.25
v 1.0800000429153442 4.150000095367432 2.236602544784546
v -1.0800000429153442 4.150000095367432 2.236602544784546
v -1.0800000429153442 4.150000095367432 2.236602544784546
v 1.0800000429153442 4.150000095367432 2.236602544784546
v -1.0800000429153442 4.186602592468262 2.200000047683716
v 1.0800000429153442 4.150000095367432 2.236602544784546
v 1.0800000429153442 4.186602592468262 2.200000047683716
v -1.0800000429153442 4.186602592468262 2.200000047683716
v -1.0800000429153442 4.186602592468262 2.200000047683716
v 1.0800000429153442 4.186602592468262 2.200000047683716
v -1.0800000429153442 4.199999809265137 2.1500000953674316
v 1.0800000429153442 4.186602592468262 2.200000047683716
v 1.0800000429153442 4.199999809265137 2.1500000953674316
v -1.0800000429153442 4.199999809265137 2.1500000953674316
v -1.0800000429153442 4.199999809265137 2.1500000953674316
v 1.0800000429153442 4.199999809265137 2.1500000953674316
v -1.0800000429153442 4.186602592468262 2.0999999046325684
v 1.0800000429153442 4.199999809265137 2.1500000953674316
v 1.0800000429153442 4.186602592468262 2.0999999046325684
v -1.0800000429153442 4.186602592468262 2.0999999046325684
v -1.0800000429153442 4.186602592468262 2.0999999046325684
v 1.0800000429153442 4.186602592468262 2.0999999046325684
v -1.0800000429153442 4.150000095367432 2.0633974075317383
v 1.0800000429153442 4.186602592468262 2.0999999046325684
v 1.0800000429153442 4.150000095367432 2.0633974075317383
v -1.0800000429153442 4.150000095367432 2.0633974075317383
v -1.0800000429153442 4.150000095367432 2.0633974075317383
v 1.0800000429153442 4.150000095367432 2.0633974075317383
v -1.0800000429153442 4.099999904632568 2.049999952316284
v 1.0800000429153442 4.150000095367432 2.0633974075317383
v 1.0800000429153442 4.099999904632568 2.049999952316284
v -1.0800000429153442 4.099999904632568 2.049999952316284
v -1.0800000429153442 4.099999904632568 2.049999952316284
v 1.0800000429153442 4.099999904632568 2.049999952316284
v -1.0800000429153442 4.050000190734863 2.0633974075317383
v 1.0800000429153442 4.099999904632568 2.049999952316284
v 1.0800000429153442 4.050000190734863 2.0633974075317383
v -1.0800000429153442 4.050000190734863 2.0633974075317383
v -1.0800000429153442 4.050000190734863 2.0633974075317383
v 1.0800000429153442 4.050000190734863 2.0633974075317383
v -1.0800000429153442 4.013397693634033 2.0999999046325684
v 1.0800000429153442 4.050000190734863 2.0633974075317383
v 1.0800000429153442 4.013397693634033 2.0999999046325684
v -1.0800000429153442 4.013397693634033 2.0999999046325684
v -1.0800000429153442 4.013397693634033 2.0999999046325684
v 1.0800000429153442 4.013397693634033 2.0999999046325684
v -1.0800000429153442 4 2.1500000953674316
v 1.0800000429153442 4.013397693634033 2.0999999046325684
v 1.0800000429153442 4 2.1500000953674316
v -1.0800000429153442 4 2.1500000953674316
v -1.0800000429153442 4 2.1500000953674316
v 1.0800000429153442 4 2.1500000953674316
v -1.0800000429153442 4.013397693634033 2.200000047683716
v 1.0800000429153442 4 2.1500000953674316
v 1.0800000429153442 4.013397693634033 2.200000047683716
v -1.0800000429153442 4.013397693634033 2.200000047683716
v -1.0800000429153442 4.013397693634033 2.200000047683716
v 1.0800000429153442 4.013397693634033 2.200000047683716
v -1.0800000429153442 4.050000190734863 2.236602544784546
v 1.0800000429153442 4.013397693634033 2.200000047683716
v 1.0800000429153442 4.050000190734863 2.236602544784546
v -1.0800000429153442 4.050000190734863 2.236602544784546
v -1.0800000429153442 4.050000190734863 2.236602544784546
v 1.0800000429153442 4.050000190734863 2.236602544784546
v -1.0800000429153442 4.099999904632568 2.25
v 1.0800000429153442 4.050000190734863 2.236602544784546
v 1.0800000429153442 4.099999904632568 2.25
v -1.0800000429153442 4.099999904632568 2.25
v -1.0800000429153442 4.099999904632568 2.25
v -1.0800000429153442 4.150000095367432 2.236602544784546
v -1.0800000429153442 4.099999904632568 2.1500000953674316
v -1.0800000429153442 4.150000095367432 2.236602544784546
v -1.0800000429153442 4.186602592468262 2.200000047683716
v -1.0800000429153442 4.099999904632568 2.1500000953674316
v -1.0800000429153442 4.186602592468262 2.200000047683716
v -1.0800000429153442 4.199999809265137 2.1500000953674316
v -1.0800000429153442 4.099999904632568 2.1500000953674316
v -1.0800000429153442 4.199999809265137 2.1500000953674316
v -1.0800000429153442 4.186602592468262 2.0999999046325684
v -1.0800000429153442 4.099999904632568 2.1500000953674316
v -1.0800000429153442 4.186602592468262 2.0999999046325684
v -1.0800000429153442 4.150000095367432 2.0633974075317383
v -1.0800000429153442 4.099999904632568 2.1500000953674316
v -1.0800000429153442 4.150000095367432 2.0633974075317383
v -1.0800000429153442 4.099999904632568 2.049999952316284
v -1.0800000429153442 4.099999904632568 2.1500000953674316
v -1.0800000429153442 4.099999904632568 2.049999952316284
v -1.0800000429153442 4.050000190734863 2.0633974075317383
v -1.0800000429153442 4.099999904632568 2.1500000953674316
v -1.0800000429153442 4.050000190734863 2.0633974075317383
v -1.0800000429153442 4.013397693634033 2.0999999046325684
v -1.0800000429153442 4.099999904632568 2.1500000953674316
v -1.0800000429153442 4.013397693634033 2.0999999046325684
v -1.0800000429153442 4 2.1500000953674316
v -1.0800000429153442 4.099999904632568 2.1500000953674316
v -1.0800000429153442 4 2.1500000953674316
v -1.0800000429153442 4.013397693634033 2.200000047683716
v -1.0800000429153442 4.099999904632568 2.1500000953674316
v -1.0800000429153442 4.013397693634033 2.200000047683716
v -1.0800000429153442 4.050000190734863 2.236602544784546
v -1.0800000429153442 4.099999904632568 2.1500000953674316
v -1.0800000429153442 4.050000190734863 2.236602544784546
v -1.0800000429153442 4.099999904632568 2.25
v -1.0800000429153442 4.099999904632568 2.1500000953674316
v 1.0800000429153442 4.150000095367432 2.236602544784546
v 1.0800000429153442 4.099999904632568 2.25
v 1.0800000429153442 4.099999904632568 2.1500000953674316
v 1.0800000429153442 4.186602592468262 2.200000047683716
v 1.0800000429153442 4.150000095367432 2.236602544784546
v 1.0800000429153442 4.099999904632568 2.1500000953674316
v 1.0800000429153442 4.199999809265137 2.1500000953674316
v 1.0800000429153442 4.186602592468262 2.200000047683716
v 1.0800000429153442 4.099999904632568 2.1500000953674316
v 1.0800000429153442 4.186602592468262 2.0999999046325684
v 1.0800000429153442 4.199999809265137 2.1500000953674316
v 1.0800000429153442 4.099999904632568 2.1500000953674316
v 1.0800000429153442 4.150000095367432 2.0633974075317383
v 1.0800000429153442 4.186602592468262 2.0999999046325684
v 1.0800000429153442 4.099999904632568 2.1500000953674316
v 1.0800000429153442 4.099999904632568 2.049999952316284
v 1.0800000429153442 4.150000095367432 2.0633974075317383
v 1.0800000429153442 4.099999904632568 2.1500000953674316
v 1.0800000429153442 4.050000190734863 2.0633974075317383
v 1.0800000429153442 4.099999904632568 2.049999952316284
v 1.0800000429153442 4.099999904632568 2.1500000953674316
v 1.0800000429153442 4.013397693634033 2.0999999046325684
v 1.0800000429153442 4.050000190734863 2.0633974075317383
v 1.0800000429153442 4.099999904632568 2.1500000953674316
v 1.0800000429153442 4 2.1500000953674316
v 1.0800000429153442 4.013397693634033 2.0999999046325684
v 1.0800000429153442 4.099999904632568 2.1500000953674316
v 1.0800000429153442 4.013397693634033 2.200000047683716
v 1.0800000429153442 4 2.1500000953674316
v 1.0800000429153442 4.099999904632568 2.1500000953674316
v 1.0800000429153442 4.050000190734863 2.236602544784546
v 1.0800000429153442 4.013397693634033 2.200000047683716
v 1.0800000429153442 4.099999904632568 2.1500000953674316
v 1.0800000429153442 4.099999904632568 2.25
v 1.0800000429153442 4.050000190734863 2.236602544784546
v 1.0800000429153442 4.099999904632568 2.1500000953674316
vt 0 1
vt 0 0
vt 0.0833333358168602 1
vt 0 0
vt 0.0833333358168602 0
vt 0.0833333358168602 1
vt 0.0833333358168602 1
vt 0.0833333358168602 0
vt 0.1666666716337204 1
vt 0.0833333358168602 0
vt 0.1666666716337204 0
vt 0.1666666716337204 1
vt 0.1666666716337204 1
vt 0.1666666716337204 0
vt 0.25 1
vt 0.1666666716337204 0
vt 0.25 0
vt 0.25 1
vt 0.25 1
vt 0.25 0
vt 0.3333333432674408 1
vt 0.25 0
vt 0.3333333432674408 0
vt 0.3333333432674408 1
vt 0.3333333432674408 1
vt 0.3333333432674408 0
vt 0.4166666567325592 1
vt 0.3333333432674408 0
vt 0.4166666567325592 0
vt 0.4166666567325592 1
vt 0.4166666567325592 1
vt 0.4166666567325592 0
vt 0.5 1
vt 0.4166666567325592 0
vt 0.5 0
vt 0.5 1
vt 0.5 1
vt 0.5 0
vt 0.5833333134651184 1
vt 0.5 0
vt 0.5833333134651184 0
vt 0.5833333134651184 1
vt 0.5833333134651184 1
vt 0.5833333134651184 0
vt 0.6666666865348816 1
vt 0.5833333134651184 0
vt 0.6666666865348816 0
vt 0.6666666865348816 1
vt 0.6666666865348816 1
vt 0.6666666865348816 0
vt 0.75 1
vt 0.6666666865348816 0
vt 0.75 0
vt 0.75 1
vt 0.75 1
vt 0.75 0
vt 0.8333333134651184 1
vt 0.75 0
vt 0.8333333134651184 0
vt 0.8333333134651184 1
vt 0.8333333134651184 1
vt 0.8333333134651184 0
vt 0.9166666865348816 1
vt 0.8333333134651184 0
vt 0.9166666865348816 0
vt 0.9166666865348816 1
vt 0.9166666865348816 1
vt 0.9166666865348816 0
vt 1 1
vt 0.9166666865348816 0
vt 1 0
vt 1 1
vt 1 0.5
vt 0.9330127239227295 0.75
vt 0.5 0.5
vt 0.9330127239227295 0.75
vt 0.75 0.9330127239227295
vt 0.5 0.5
vt 0.75 0.9330127239227295
vt 0.5 1
vt 0.5 0.5
vt 0.5 1
vt 0.25 0.9330127239227295
vt 0.5 0.5
vt 0.25 0.9330127239227295
vt 0.0669872984290123 0.75
vt 0.5 0.5
vt 0.0669872984290123 0.75
vt 0 0.5
vt 0.5 0.5
vt 0 0.5
vt 0.0669872984290123 0.25
vt 0.5 0.5
vt 0.0669872984290123 0.25
vt 0.25 0.0669872984290123
vt 0.5 0.5
vt 0.25 0.0669872984290123
vt 0.5 0
vt 0.5 0.5
vt 0.5 0
vt 0.75 0.0669872984290123
vt 0.5 0.5
vt 0.75 0.0669872984290123
vt 0.9330127239227295 0.25
vt 0.5 0.5
vt 0.9330127239227295 0.25
vt 1 0.5
vt 0.5 0.5
vt 0.9330127239227295 0.25
vt 1 0.5
vt 0.5 0.5
vt 0.75 0.0669872984290123
vt 0.9330127239227295 0.25
vt 0.5 0.5
vt 0.5 0
vt 0.75 0.0669872984290123
vt 0.5 0.5
vt 0.25 0.0669872984290123
vt 0.5 0
vt 0.5 0.5
vt 0.0669872984290123 0.25
vt 0.25 0.0669872984290123
vt 0.5 0.5
vt 0 0.5
vt 0.0669872984290123 0.25
vt 0.5 0.5
vt 0.0669872984290123 0.75
vt 0 0.5
vt 0.5 0.5
vt 0.25 0.9330127239227295
vt 0.0669872984290123 0.75
vt 0.5 0.5
vt 0.5 1
vt 0.25 0.9330127239227295
vt 0.5 0.5
vt 0.75 0.9330127239227295
vt 0.5 1
vt 0.5 0.5
vt 0.9330127239227295 0.75
vt 0.75 0.9330127239227295
vt 0.5 0.5
vt 1 0.5
vt 0.9330127239227295 0.75
vt 0.5 0.5
vn 0 0 1
vn 0 0 1
vn 1.1102230395700616e-16 0.5000000067305869 0.8660253998985324
vn 0 0 1
vn 1.1102230395700616e-16 0.5000000067305869 0.8660253998985324
vn 1.1102230395700616e-16 0.5000000067305869 0.8660253998985324
vn 1.1102230395700616e-16 0.5000000067305869 0.8660253998985324
vn 1.1102230395700616e-16 0.5000000067305869 0.8660253998985324
vn 1.9229626777551189e-16 0.8660253998985324 0.5000000067305869
vn 1.1102230395700616e-16 0.5000000067305869 0.8660253998985324
vn 1.9229626777551189e-16 0.8660253998985324 0.5000000067305869
vn 1.9229626777551189e-16 0.8660253998985324 0.5000000067305869
vn 1.9229626777551189e-16 0.8660253998985324 0.5000000067305869
vn 1.9229626777551189e-16 0.8660253998985324 0.5000000067305869
vn 2.220446049250313e-16 1 6.123234262925839e-17
vn 1.9229626777551189e-16 0.8660253998985324 0.5000000067305869
vn 2.220446049250313e-16 1 6.123234262925839e-17
vn 2.220446049250313e-16 1 6.123234262925839e-17
vn 2.220446049250313e-16 1 6.123234262925839e-17
vn 2.220446049250313e-16 1 6.123234262925839e-17
vn 1.9229626777551189e-16 0.8660253998985324 -0.5000000067305869
vn 2.220446049250313e-16 1 6.123234262925839e-17
vn 1.9229626777551189e-16 0.8660253998985324 -0.5000000067305869
vn 1.9229626777551189e-16 0.8660253998985324 -0.5000000067305869
vn 1.9229626777551189e-16 0.8660253998985324 -0.5000000067305869
vn 1.9229626777551189e-16 0.8660253998985324 -0.5000000067305869
vn 1.1102230395700616e-16 0.5000000067305869 -0.8660253998985324
vn 1.9229626777551189e-16 0.8660253998985324 -0.5000000067305869
vn 1.1102230395700616e-16 0.5000000067305869 -0.8660253998985324
vn 1.1102230395700616e-16 0.5000000067305869 -0.8660253998985324
vn 1.1102230395700616e-16 0.5000000067305869 -0.8660253998985324
vn 1.1102230395700616e-16 0.5000000067305869 -0.8660253998985324
vn 2.7192622655495665e-32 1.2246468525851679e-16 -1
vn 1.1102230395700616e-16 0.5000000067305869 -0.8660253998985324
vn 2.7192622655495665e-32 1.2246468525851679e-16 -1
vn 2.7192622655495665e-32 1.2246468525851679e-16 -1
vn 2.7192622655495665e-32 1.2246468525851679e-16 -1
vn 2.7192622655495665e-32 1.2246468525851679e-16 -1
vn -1.1102230395700616e-16 -0.5000000067305869 -0.8660253998985324
vn 2.7192622655495665e-32 1.2246468525851679e-16 -1
vn -1.1102230395700616e-16 -0.5000000067305869 -0.8660253998985324
vn -1.1102230395700616e-16 -0.5000000067305869 -0.8660253998985324
vn -1.1102230395700616e-16 -0.5000000067305869 -0.8660253998985324
vn -1.1102230395700616e-16 -0.5000000067305869 -0.8660253998985324
vn -1.9229626777551189e-16 -0.8660253998985324 -0.5000000067305869
vn -1.1102230395700616e-16 -0.5000000067305869 -0.8660253998985324
vn -1.9229626777551189e-16 -0.8660253998985324 -0.5000000067305869
vn -1.9229626777551189e-16 -0.8660253998985324 -0.5000000067305869
vn -1.9229626777551189e-16 -0.8660253998985324 -0.5000000067305869
vn -1.9229626777551189e-16 -0.8660253998985324 -0.5000000067305869
vn -2.220446049250313e-16 -1 -1.8369701465288538e-16
vn -1.9229626777551189e-16 -0.8660253998985324 -0.5000000067305869
vn -2.220446049250313e-16 -1 -1.8369701465288538e-16
vn -2.220446049250313e-16 -1 -1.8369701465288538e-16
vn -2.220446049250313e-16 -1 -1.8369701465288538e-16
vn -2.220446049250313e-16 -1 -1.8369701465288538e-16
vn -1.9229626777551189e-16 -0.8660253998985324 0.5000000067305869
vn -2.220446049250313e-16 -1 -1.8369701465288538e-16
vn -1.9229626777551189e-16 -0.8660253998985324 0.5000000067305869
vn -1.9229626777551189e-16 -0.8660253998985324 0.5000000067305869
vn -1.9229626777551189e-16 -0.8660253998985324 0.5000000067305869
vn -1.9229626777551189e-16 -0.8660253998985324 0.5000000067305869
vn -1.1102230395700616e-16 -0.5000000067305869 0.8660253998985324
vn -1.9229626777551189e-16 -0.8660253998985324 0.5000000067305869
vn -1.1102230395700616e-16 -0.5000000067305869 0.8660253998985324
vn -1.1102230395700616e-16 -0.5000000067305869 0.8660253998985324
vn -1.1102230395700616e-16 -0.5000000067305869 0.8660253998985324
vn -1.1102230395700616e-16 -0.5000000067305869 0.8660253998985324
vn -5.438524531099133e-32 -2.4492937051703357e-16 1
vn -1.1102230395700616e-16 -0.5000000067305869 0.8660253998985324
vn -5.438524531099133e-32 -2.4492937051703357e-16 1
vn -5.438524531099133e-32 -2.4492937051703357e-16 1
vn -1 2.220446049250313e-16 0
vn -1 2.220446049250313e-16 0
vn -1 2.220446049250313e-16 0
vn -1 2.220446049250313e-16 0
vn -1 2.220446049250313e-16 0
vn -1 2.220446049250313e-16 0
vn -1 2.220446049250313e-16 0
vn -1 2.220446049250313e-16 0
vn -1 2.220446049250313e-16 0
vn -1 2.220446049250313e-16 0
vn -1 2.220446049250313e-16 0
vn -1 2.220446049250313e-16 0
vn -1 2.220446049250313e-16 0
vn -1 2.220446049250313e-16 0
vn -1 2.220446049250313e-16 0
vn -1 2.220446049250313e-16 0
vn -1 2.220446049250313e-16 0
vn -1 2.220446049250313e-16 0
vn -1 2.220446049250313e-16 0
vn -1 2.220446049250313e-16 0
vn -1 2.220446049250313e-16 0
vn -1 2.220446049250313e-16 0
vn -1 2.220446049250313e-16 0
vn -1 2.220446049250313e-16 0
vn -1 2.220446049250313e-16 0
vn -1 2.220446049250313e-16 0
vn -1 2.220446049250313e-16 0
vn -1 2.220446049250313e-16 0
vn -1 2.220446049250313e-16 0
vn -1 2.220446049250313e-16 0
vn -1 2.220446049250313e-16 0
vn -1 2.220446049250313e-16 0
vn -1 2.220446049250313e-16 0
vn -1 2.220446049250313e-16 0
vn -1 2.220446049250313e-16 0
vn -1 2.220446049250313e-16 0
vn 1 -2.220446049250313e-16 0
vn 1 -2.220446049250313e-16 0
vn 1 -2.220446049250313e-16 0
vn 1 -2.220446049250313e-16 0
vn 1 -2.220446049250313e-16 0
vn 1 -2.220446049250313e-16 0
vn 1 -2.220446049250313e-16 0
vn 1 -2.220446049250313e-16 0
vn 1 -2.220446049250313e-16 0
vn 1 -2.220446049250313e-16 0
vn 1 -2.220446049250313e-16 0
vn 1 -2.220446049250313e-16 0
vn 1 -2.220446049250313e-16 0
vn 1 -2.220446049250313e-16 0
vn 1 -2.220446049250313e-16 0
vn 1 -2.220446049250313e-16 0
vn 1 -2.220446049250313e-16 0
vn 1 -2.220446049250313e-16 0
vn 1 -2.220446049250313e-16 0
vn 1 -2.220446049250313e-16 0
vn 1 -2.220446049250313e-16 0
vn 1 -2.220446049250313e-16 0
vn 1 -2.220446049250313e-16 0
vn 1 -2.220446049250313e-16 0
vn 1 -2.220446049250313e-16 0
vn 1 -2.220446049250313e-16 0
vn 1 -2.220446049250313e-16 0
vn 1 -2.220446049250313e-16 0
vn 1 -2.220446049250313e-16 0
vn 1 -2.220446049250313e-16 0
vn 1 -2.220446049250313e-16 0
vn 1 -2.220446049250313e-16 0
vn 1 -2.220446049250313e-16 0
vn 1 -2.220446049250313e-16 0
vn 1 -2.220446049250313e-16 0
vn 1 -2.220446049250313e-16 0
f 1/1/1 2/2/2 3/3/3
f 4/4/4 5/5/5 6/6/6
f 7/7/7 8/8/8 9/9/9
f 10/10/10 11/11/11 12/12/12
f 13/13/13 14/14/14 15/15/15
f 16/16/16 17/17/17 18/18/18
f 19/19/19 20/20/20 21/21/21
f 22/22/22 23/23/23 24/24/24
f 25/25/25 26/26/26 27/27/27
f 28/28/28 29/29/29 30/30/30
f 31/31/31 32/32/32 33/33/33
f 34/34/34 35/35/35 36/36/36
f 37/37/37 38/38/38 39/39/39
f 40/40/40 41/41/41 42/42/42
f 43/43/43 44/44/44 45/45/45
f 46/46/46 47/47/47 48/48/48
f 49/49/49 50/50/50 51/51/51
f 52/52/52 53/53/53 54/54/54
f 55/55/55 56/56/56 57/57/57
f 58/58/58 59/59/59 60/60/60
f 61/61/61 62/62/62 63/63/63
f 64/64/64 65/65/65 66/66/66
f 67/67/67 68/68/68 69/69/69
f 70/70/70 71/71/71 72/72/72
f 73/73/73 74/74/74 75/75/75
f 76/76/76 77/77/77 78/78/78
f 79/79/79 80/80/80 81/81/81
f 82/82/82 83/83/83 84/84/84
f 85/85/85 86/86/86 87/87/87
f 88/88/88 89/89/89 90/90/90
f 91/91/91 92/92/92 93/93/93
f 94/94/94 95/95/95 96/96/96
f 97/97/97 98/98/98 99/99/99
f 100/100/100 101/101/101 102/102/102
f 103/103/103 104/104/104 105/105/105
f 106/106/106 107/107/107 108/108/108
f 109/109/109 110/110/110 111/111/111
f 112/112/112 113/113/113 114/114/114
f 115/115/115 116/116/116 117/117/117
f 118/118/118 119/119/119 120/120/120
f 121/121/121 122/122/122 123/123/123
f 124/124/124 125/125/125 126/126/126
f 127/127/127 128/128/128 129/129/129
f 130/130/130 131/131/131 132/132/132
f 133/133/133 134/134/134 135/135/135
f 136/136/136 137/137/137 138/138/138
f 139/139/139 140/140/140 141/141/141
f 142/142/142 143/143/143 144/144/144
