o cabinet_leg_4_mesh
v 2.7 1.5 2.000000011920929
v 2.814805027842522 1.5 1.9771638631820678
v 2.912132036685944 1.5 1.9121320366859436
v 2.977163863182068 1.5 1.8148050278425216
v 3.000000011920929 1.5 1.7
v 2.977163863182068 1.5 1.5851949721574783
v 2.912132036685944 1.5 1.4878679633140564
v 2.814805027842522 1.5 1.422836136817932
v 2.7 1.5 1.399999988079071
v 2.5851949721574785 1.5 1.422836136817932
v 2.4878679633140566 1.5 1.4878679633140564
v 2.4228361368179323 1.5 1.5851949721574783
v 2.3999999880790712 1.5 1.7
v 2.4228361368179323 1.5 1.8148050278425216
v 2.4878679633140566 1.5 1.9121320366859436
v 2.5851949721574785 1.5 1.9771638631820678
v 2.7 1.5 2.000000011920929
v 2.7 0 2.000000011920929
v 2.814805027842522 0 1.9771638631820678
v 2.912132036685944 0 1.9121320366859436
v 2.977163863182068 0 1.8148050278425216
v 3.000000011920929 0 1.7
v 2.977163863182068 0 1.5851949721574783
v 2.912132036685944 0 1.4878679633140564
v 2.814805027842522 0 1.422836136817932
v 2.7 0 1.399999988079071
v 2.5851949721574785 0 1.422836136817932
v 2.4878679633140566 0 1.4878679633140564
v 2.4228361368179323 0 1.5851949721574783
v 2.3999999880790712 0 1.7
v 2.4228361368179323 0 1.8148050278425216
v 2.4878679633140566 0 1.9121320366859436
v 2.5851949721574785 0 1.9771638631820678
v 2.7 0 2.000000011920929
v 2.7 1.5 1.7
v 2.7 1.5 1.7
v 2.7 1.5 1.7
v 2.7 1.5 1.7
v 2.7 1.5 1.7
v 2.7 1.5 1.7
v 2.7 1.5 1.7
v 2.7 1.5 1.7
v 2.7 1.5 1.7
v 2.7 1.5 1.7
v 2.7 1.5 1.7
v 2.7 1.5 1.7
v 2.7 1.5 1.7
v 2.7 1.5 1.7
v 2.7 1.5 1.7
v 2.7 1.5 1.7
v 2.7 1.5 2.000000011920929
v 2.814805027842522 1.5 1.9771638631820678
v 2.912132036685944 1.5 1.9121320366859436
v 2.977163863182068 1.5 1.8148050278425216
v 3.000000011920929 1.5 1.7
v 2.977163863182068 1.5 1.5851949721574783
v 2.912132036685944 1.5 1.4878679633140564
v 2.814805027842522 1.5 1.422836136817932
v 2.7 1.5 1.399999988079071
v 2.5851949721574785 1.5 1.422836136817932
v 2.4878679633140566 1.5 1.4878679633140564
v 2.4228361368179323 1.5 1.5851949721574783
v 2.3999999880790712 1.5 1.7
v 2.4228361368179323 1.5 1.8148050278425216
v 2.4878679633140566 1.5 1.9121320366859436
v 2.5851949721574785 1.5 1.9771638631820678
v 2.7 1.5 2.000000011920929
v 2.7 0 1.7
v 2.7 0 1.7
v 2.7 0 1.7
v 2.7 0 1.7
v 2.7 0 1.7
v 2.7 0 1.7
v 2.7 0 1.7
v 2.7 0 1.7
v 2.7 0 1.7
v 2.7 0 1.7
v 2.7 0 1.7
v 2.7 0 1.7
v 2.7 0 1.7
v 2.7 0 1.7
v 2.7 0 1.7
v 2.7 0 1.7
v 2.7 0 2.000000011920929
v 2.814805027842522 0 1.9771638631820678
v 2.912132036685944 0 1.9121320366859436
v 2.977163863182068 0 1.8148050278425216
v 3.000000011920929 0 1.7
v 2.977163863182068 0 1.5851949721574783
v 2.912132036685944 0 1.4878679633140564
v 2.814805027842522 0 1.422836136817932
v 2.7 0 1.399999988079071
v 2.5851949721574785 0 1.422836136817932
v 2.4878679633140566 0 1.4878679633140564
v 2.4228361368179323 0 1.5851949721574783
v 2.3999999880790712 0 1.7
v 2.4228361368179323 0 1.8148050278425216
v 2.4878679633140566 0 1.9121320366859436
v 2.5851949721574785 0 1.9771638631820678
v 2.7 0 2.000000011920929
vt 0 1
vt 0.0625 1
vt 0.125 1
vt 0.1875 1
vt 0.25 1
vt 0.3125 1
vt 0.375 1
vt 0.4375 1
vt 0.5 1
vt 0.5625 1
vt 0.625 1
vt 0.6875 1
vt 0.75 1
vt 0.8125 1
vt 0.875 1
vt 0.9375 1
vt 1 1
vt 0 0
vt 0.0625 0
vt 0.125 0
vt 0.1875 0
vt 0.25 0
vt 0.3125 0
vt 0.375 0
vt 0.4375 0
vt 0.5 0
vt 0.5625 0
vt 0.625 0
vt 0.6875 0
vt 0.75 0
vt 0.8125 0
vt 0.875 0
vt 0.9375 0
vt 1 0
vt 0.5 0.5
vt 0.5 0.5
vt 0.5 0.5
vt 0.5 0.5
vt 0.5 0.5
vt 0.5 0.5
vt 0.5 0.5
vt 0.5 0.5
vt 0.5 0.5
vt 0.5 0.5
vt 0.5 0.5
vt 0.5 0.5
vt 0.5 0.5
vt 0.5 0.5
vt 0.5 0.5
vt 0.5 0.5
vt 1 0.5
vt 0.9619397521018982 0.6913416981697083
vt 0.8535534143447876 0.8535534143447876
vt 0.6913416981697083 0.9619397521018982
vt 0.5 1
vt 0.30865827202796936 0.9619397521018982
vt 0.1464466154575348 0.8535534143447876
vt 0.03806023299694061 0.6913416981697083
vt 0 0.5
vt 0.03806023299694061 0.30865827202796936
vt 0.1464466154575348 0.1464466154575348
vt 0.30865827202796936 0.03806023299694061
vt 0.5 0
vt 0.6913416981697083 0.03806023299694061
vt 0.8535534143447876 0.1464466154575348
vt 0.9619397521018982 0.30865827202796936
vt 1 0.5
vt 0.5 0.5
vt 0.5 0.5
vt 0.5 0.5
vt 0.5 0.5
vt 0.5 0.5
vt 0.5 0.5
vt 0.5 0.5
vt 0.5 0.5
vt 0.5 0.5
vt 0.5 0.5
vt 0.5 0.5
vt 0.5 0.5
vt 0.5 0.5
vt 0.5 0.5
vt 0.5 0.5
vt 0.5 0.5
vt 1 0.5
vt 0.9619397521018982 0.30865827202796936
vt 0.8535534143447876 0.1464466154575348
vt 0.6913416981697083 0.03806023299694061
vt 0.5 0
vt 0.30865827202796936 0.03806023299694061
vt 0.1464466154575348 0.1464466154575348
vt 0.03806023299694061 0.30865827202796936
vt 0 0.5
vt 0.03806023299694061 0.6913416981697083
vt 0.1464466154575348 0.8535534143447876
vt 0.30865827202796936 0.9619397521018982
vt 0.5 1
vt 0.6913416981697083 0.9619397521018982
vt 0.8535534143447876 0.8535534143447876
vt 0.9619397521018982 0.6913416981697083
vt 1 0.5
vn 0 0 1
vn 0.3826834370613369 0 0.9238795305660377
vn 0.7071067811865476 0 0.7071067811865476
vn 0.9238795305660377 0 0.3826834370613369
vn 1 0 6.123234262925839e-17
vn 0.9238795305660377 0 -0.3826834370613369
vn 0.7071067811865476 0 -0.7071067811865476
vn 0.3826834370613369 0 -0.9238795305660377
vn 1.2246468525851679e-16 0 -1
vn -0.3826834370613369 0 -0.9238795305660377
vn -0.7071067811865476 0 -0.7071067811865476
vn -0.9238795305660377 0 -0.3826834370613369
vn -1 0 -1.8369701465288538e-16
vn -0.9238795305660377 0 0.3826834370613369
vn -0.7071067811865476 0 0.7071067811865476
vn -0.3826834370613369 0 0.9238795305660377
vn -2.4492937051703357e-16 0 1
vn 0 0 1
vn 0.3826834370613369 0 0.9238795305660377
vn 0.7071067811865476 0 0.7071067811865476
vn 0.9238795305660377 0 0.3826834370613369
vn 1 0 6.123234262925839e-17
vn 0.9238795305660377 0 -0.3826834370613369
vn 0.7071067811865476 0 -0.7071067811865476
vn 0.3826834370613369 0 -0.9238795305660377
vn 1.2246468525851679e-16 0 -1
vn -0.3826834370613369 0 -0.9238795305660377
vn -0.7071067811865476 0 -0.7071067811865476
vn -0.9238795305660377 0 -0.3826834370613369
vn -1 0 -1.8369701465288538e-16
vn -0.9238795305660377 0 0.3826834370613369
vn -0.7071067811865476 0 0.7071067811865476
vn -0.3826834370613369 0 0.9238795305660377
vn -2.4492937051703357e-16 0 1
vn 0 1 0
vn 0 1 0
vn 0 1 0
vn 0 1 0
vn 0 1 0
vn 0 1 0
vn 0 1 0
vn 0 1 0
vn 0 1 0
vn 0 1 0
vn 0 1 0
vn 0 1 0
vn 0 1 0
vn 0 1 0
vn 0 1 0
vn 0 1 0
vn 0 1 0
vn 0 1 0
vn 0 1 0
vn 0 1 0
vn 0 1 0
vn 0 1 0
vn 0 1 0
vn 0 1 0
vn 0 1 0
vn 0 1 0
vn 0 1 0
vn 0 1 0
vn 0 1 0
vn 0 1 0
vn 0 1 0
vn 0 1 0
vn 0 1 0
vn 0 -1 0
vn 0 -1 0
vn 0 -1 0
vn 0 -1 0
vn 0 -1 0
vn 0 -1 0
vn 0 -1 0
vn 0 -1 0
vn 0 -1 0
vn 0 -1 0
vn 0 -1 0
vn 0 -1 0
vn 0 -1 0
vn 0 -1 0
vn 0 -1 0
vn 0 -1 0
vn 0 -1 0
vn 0 -1 0
vn 0 -1 0
vn 0 -1 0
vn 0 -1 0
vn 0 -1 0
vn 0 -1 0
vn 0 -1 0
vn 0 -1 0
vn 0 -1 0
vn 0 -1 0
vn 0 -1 0
vn 0 -1 0
vn 0 -1 0
vn 0 -1 0
vn 0 -1 0
vn 0 -1 0
f 1/1/1 18/18/18 2/2/2
f 18/18/18 19/19/19 2/2/2
f 2/2/2 19/19/19 3/3/3
f 19/19/19 20/20/20 3/3/3
f 3/3/3 20/20/20 4/4/4
f 20/20/20 21/21/21 4/4/4
f 4/4/4 21/21/21 5/5/5
f 21/21/21 22/22/22 5/5/5
f 5/5/5 22/22/22 6/6/6
f 22/22/22 23/23/23 6/6/6
f 6/6/6 23/23/23 7/7/7
f 23/23/23 24/24/24 7/7/7
f 7/7/7 24/24/24 8/8/8
f 24/24/24 25/25/25 8/8/8
f 8/8/8 25/25/25 9/9/9
f 25/25/25 26/26/26 9/9/9
f 9/9/9 26/26/26 10/10/10
f 26/26/26 27/27/27 10/10/10
f 10/10/10 27/27/27 11/11/11
f 27/27/27 28/28/28 11/11/11
f 11/11/11 28/28/28 12/12/12
f 28/28/28 29/29/29 12/12/12
f 12/12/12 29/29/29 13/13/13
f 29/29/29 30/30/30 13/13/13
f 13/13/13 30/30/30 14/14/14
f 30/30/30 31/31/31 14/14/14
f 14/14/14 31/31/31 15/15/15
f 31/31/31 32/32/32 15/15/15
f 15/15/15 32/32/32 16/16/16
f 32/32/32 33/33/33 16/16/16
f 16/16/16 33/33/33 17/17/17
f 33/33/33 34/34/34 17/17/17
f 51/51/51 52/52/52 35/35/35
f 52/52/52 53/53/53 36/36/36
f 53/53/53 54/54/54 37/37/37
f 54/54/54 55/55/55 38/38/38
f 55/55/55 56/56/56 39/39/39
f 56/56/56 57/57/57 40/40/40
f 57/57/57 58/58/58 41/41/41
f 58/58/58 59/59/59 42/42/42
f 59/59/59 60/60/60 43/43/43
f 60/60/60 61/61/61 44/44/44
f 61/61/61 62/62/62 45/45/45
f 62/62/62 63/63/63 46/46/46
f 63/63/63 64/64/64 47/47/47
f 64/64/64 65/65/65 48/48/48
f 65/65/65 66/66/66 49/49/49
f 66/66/66 67/67/67 50/50/50
f 85/85/85 84/84/84 68/68/68
f 86/86/86 85/85/85 69/69/69
f 87/87/87 86/86/86 70/70/70
f 88/88/88 87/87/87 71/71/71
f 89/89/89 88/88/88 72/72/72
f 90/90/90 89/89/89 73/73/73
f 91/91/91 90/90/90 74/74/74
f 92/92/92 91/91/91 75/75/75
f 93/93/93 92/92/92 76/76/76
f 94/94/94 93/93/93 77/77/77
f 95/95/95 94/94/94 78/78/78
f 96/96/96 95/95/95 79/79/79
f 97/97/97 96/96/96 80/80/80
f 98/98/98 97/97/97 81/81/81
f 99/99/99 98/98/98 82/82/82
f 100/100/100 99/99/99 83/83/83
