o crank_arm_bottom
v 0.30000001192092896 -0.29201772809028625 -0.16973420977592468
v 0.35999998450279236 -0.2930871546268463 -0.15369287133216858
v 0.40392303466796875 -0.2960088551044464 -0.10986711084842682
v 0.41999998688697815 -0.30000001192092896 -0.05000000074505806
v 0.40392303466796875 -0.3039911389350891 0.009867108426988125
v 0.35999998450279236 -0.3069128692150116 0.05369287356734276
v 0.30000001192092896 -0.30798226594924927 0.06973421573638916
v 0.23999999463558197 -0.3069128692150116 0.05369287356734276
v 0.19607695937156677 -0.3039911389350891 0.009867108426988125
v 0.18000000715255737 -0.30000001192092896 -0.05000000074505806
v 0.19607695937156677 -0.2960088551044464 -0.10986711084842682
v 0.23999999463558197 -0.2930871546268463 -0.15369287133216858
v 0.30000001192092896 -0.29201772809028625 -0.16973420977592468
v 0.30000001192092896 0.45798227190971375 -0.11973421275615692
v 0.35999998450279236 0.4569128453731537 -0.10369287431240082
v 0.40392303466796875 0.4539911448955536 -0.05986710637807846
v 0.41999998688697815 0.44999998807907104 -5.2731364413860504e-11
v 0.40392303466796875 0.4460088610649109 0.05986710637807846
v 0.35999998450279236 0.4430871307849884 0.10369287431240082
v 0.30000001192092896 0.44201770424842834 0.11973421275615692
v 0.23999999463558197 0.4430871307849884 0.10369287431240082
v 0.19607695937156677 0.4460088610649109 0.05986710637807846
v 0.18000000715255737 0.44999998807907104 -5.273133665828489e-11
v 0.19607695937156677 0.4539911448955536 -0.05986710637807846
v 0.23999999463558197 0.4569128453731537 -0.10369287431240082
v 0.30000001192092896 0.45798227190971375 -0.11973421275615692
v 0.30000001192092896 -0.30000001192092896 -0.05000000074505806
v 0.30000001192092896 -0.30000001192092896 -0.05000000074505806
v 0.30000001192092896 -0.30000001192092896 -0.05000000074505806
v 0.30000001192092896 -0.30000001192092896 -0.05000000074505806
v 0.30000001192092896 -0.30000001192092896 -0.05000000074505806
v 0.30000001192092896 -0.30000001192092896 -0.05000000074505806
v 0.30000001192092896 -0.30000001192092896 -0.05000000074505806
v 0.30000001192092896 -0.30000001192092896 -0.05000000074505806
v 0.30000001192092896 -0.30000001192092896 -0.05000000074505806
v 0.30000001192092896 -0.30000001192092896 -0.05000000074505806
v 0.30000001192092896 -0.30000001192092896 -0.05000000074505806
v 0.30000001192092896 -0.30000001192092896 -0.05000000074505806
v 0.30000001192092896 -0.29201772809028625 -0.16973420977592468
v 0.35999998450279236 -0.2930871546268463 -0.15369287133216858
v 0.40392303466796875 -0.2960088551044464 -0.10986711084842682
v 0.41999998688697815 -0.30000001192092896 -0.05000000074505806
v 0.40392303466796875 -0.3039911389350891 0.009867108426988125
v 0.35999998450279236 -0.3069128692150116 0.05369287356734276
v 0.30000001192092896 -0.30798226594924927 0.06973421573638916
v 0.23999999463558197 -0.3069128692150116 0.05369287356734276
v 0.19607695937156677 -0.3039911389350891 0.009867108426988125
v 0.18000000715255737 -0.30000001192092896 -0.05000000074505806
v 0.19607695937156677 -0.2960088551044464 -0.10986711084842682
v 0.23999999463558197 -0.2930871546268463 -0.15369287133216858
v 0.30000001192092896 -0.29201772809028625 -0.16973420977592468
v 0.30000001192092896 0.44999998807907104 -5.27313574749666e-11
v 0.30000001192092896 0.44999998807907104 -5.27313574749666e-11
v 0.30000001192092896 0.44999998807907104 -5.27313574749666e-11
v 0.30000001192092896 0.44999998807907104 -5.27313574749666e-11
v 0.30000001192092896 0.44999998807907104 -5.27313574749666e-11
v 0.30000001192092896 0.44999998807907104 -5.27313574749666e-11
v 0.30000001192092896 0.44999998807907104 -5.27313574749666e-11
v 0.30000001192092896 0.44999998807907104 -5.27313574749666e-11
v 0.30000001192092896 0.44999998807907104 -5.27313574749666e-11
v 0.30000001192092896 0.44999998807907104 -5.27313574749666e-11
v 0.30000001192092896 0.44999998807907104 -5.27313574749666e-11
v 0.30000001192092896 0.44999998807907104 -5.27313574749666e-11
v 0.30000001192092896 0.45798227190971375 -0.11973421275615692
v 0.35999998450279236 0.4569128453731537 -0.10369287431240082
v 0.40392303466796875 0.4539911448955536 -0.05986710637807846
v 0.41999998688697815 0.44999998807907104 -5.2731364413860504e-11
v 0.40392303466796875 0.4460088610649109 0.05986710637807846
v 0.35999998450279236 0.4430871307849884 0.10369287431240082
v 0.30000001192092896 0.44201770424842834 0.11973421275615692
v 0.23999999463558197 0.4430871307849884 0.10369287431240082
v 0.19607695937156677 0.4460088610649109 0.05986710637807846
v 0.18000000715255737 0.44999998807907104 -5.273133665828489e-11
v 0.19607695937156677 0.4539911448955536 -0.05986710637807846
v 0.23999999463558197 0.4569128453731537 -0.10369287431240082
v 0.30000001192092896 0.45798227190971375 -0.11973421275615692
vt 0 1
vt 0.0833333358168602 1
vt 0.1666666716337204 1
vt 0.25 1
vt 0.3333333432674408 1
vt 0.4166666567325592 1
vt 0.5 1
vt 0.5833333134651184 1
vt 0.6666666865348816 1
vt 0.75 1
vt 0.8333333134651184 1
vt 0.9166666865348816 1
vt 1 1
vt 0 0
vt 0.0833333358168602 0
vt 0.1666666716337204 0
vt 0.25 0
vt 0.3333333432674408 0
vt 0.4166666567325592 0
vt 0.5 0
vt 0.5833333134651184 0
vt 0.6666666865348816 0
vt 0.75 0
vt 0.8333333134651184 0
vt 0.9166666865348816 0
vt 1 0
vt 0.5 0.5
vt 0.5 0.5
vt 0.5 0.5
vt 0.5 0.5
vt 0.5 0.5
vt 0.5 0.5
vt 0.5 0.5
vt 0.5 0.5
vt 0.5 0.5
vt 0.5 0.5
vt 0.5 0.5
vt 0.5 0.5
vt 1 0.5
vt 0.9330127239227295 0.75
vt 0.75 0.9330127239227295
vt 0.5 1
vt 0.25 0.9330127239227295
vt 0.0669872984290123 0.75
vt 0 0.5
vt 0.0669872984290123 0.25
vt 0.25 0.0669872984290123
vt 0.5 0
vt 0.75 0.0669872984290123
vt 0.9330127239227295 0.25
vt 1 0.5
vt 0.5 0.5
vt 0.5 0.5
vt 0.5 0.5
vt 0.5 0.5
vt 0.5 0.5
vt 0.5 0.5
vt 0.5 0.5
vt 0.5 0.5
vt 0.5 0.5
vt 0.5 0.5
vt 0.5 0.5
vt 0.5 0.5
vt 1 0.5
vt 0.9330127239227295 0.25
vt 0.75 0.0669872984290123
vt 0.5 0
vt 0.25 0.0669872984290123
vt 0.0669872984290123 0.25
vt 0 0.5
vt 0.0669872984290123 0.75
vt 0.25 0.9330127239227295
vt 0.5 1
vt 0.75 0.9330127239227295
vt 0.9330127239227295 0.75
vt 1 0.5
vn 0 0.06651900755672854 -0.997785158054412
vn 0.4999999928896779 0.05760715074872513 -0.8641072984837795
vn 0.8660254013209066 0.03325950777100518 -0.49889258303746453
vn 1 4.073114677598382e-18 -6.10967247134691e-17
vn 0.8660254013209066 -0.03325950777100518 0.49889258303746453
vn 0.4999999928896779 -0.05760715074872513 0.8641072984837795
vn 1.2246468612376277e-16 -0.06651900755672854 0.997785158054412
vn -0.4999999928896779 -0.05760715074872513 0.8641072984837795
vn -0.8660254013209066 -0.03325950777100518 0.49889258303746453
vn -1 -1.221934361920484e-17 1.832901609055175e-16
vn -0.8660254013209066 0.03325950777100518 -0.49889258303746453
vn -0.4999999928896779 0.05760715074872513 -0.8641072984837795
vn -2.4492937224752554e-16 0.06651900755672854 -0.997785158054412
vn 0 0.06651900755672854 -0.997785158054412
vn 0.4999999928896779 0.05760715074872513 -0.8641072984837795
vn 0.8660254013209066 0.03325950777100518 -0.49889258303746453
vn 1 4.073114677598382e-18 -6.10967247134691e-17
vn 0.8660254013209066 -0.03325950777100518 0.49889258303746453
vn 0.4999999928896779 -0.05760715074872513 0.8641072984837795
vn 1.2246468612376277e-16 -0.06651900755672854 0.997785158054412
vn -0.4999999928896779 -0.05760715074872513 0.8641072984837795
vn -0.8660254013209066 -0.03325950777100518 0.49889258303746453
vn -1 -1.221934361920484e-17 1.832901609055175e-16
vn -0.8660254013209066 0.03325950777100518 -0.49889258303746453
vn -0.4999999928896779 0.05760715074872513 -0.8641072984837795
vn -2.4492937224752554e-16 0.06651900755672854 -0.997785158054412
vn 0 -0.997785158054412 -0.06651900755672854
vn 0 -0.997785158054412 -0.06651900755672854
vn 0 -0.997785158054412 -0.06651900755672854
vn 0 -0.997785158054412 -0.06651900755672854
vn 0 -0.997785158054412 -0.06651900755672854
vn 0 -0.997785158054412 -0.06651900755672854
vn 0 -0.997785158054412 -0.06651900755672854
vn 0 -0.997785158054412 -0.06651900755672854
vn 0 -0.997785158054412 -0.06651900755672854
vn 0 -0.997785158054412 -0.06651900755672854
vn 0 -0.997785158054412 -0.06651900755672854
vn 0 -0.997785158054412 -0.06651900755672854
vn 0 -0.997785158054412 -0.06651900755672854
vn 0 -0.997785158054412 -0.06651900755672854
vn 0 -0.997785158054412 -0.06651900755672854
vn 0 -0.997785158054412 -0.06651900755672854
vn 0 -0.997785158054412 -0.06651900755672854
vn 0 -0.997785158054412 -0.06651900755672854
vn 0 -0.997785158054412 -0.06651900755672854
vn 0 -0.997785158054412 -0.06651900755672854
vn 0 -0.997785158054412 -0.06651900755672854
vn 0 -0.997785158054412 -0.06651900755672854
vn 0 -0.997785158054412 -0.06651900755672854
vn 0 -0.997785158054412 -0.06651900755672854
vn 0 -0.997785158054412 -0.06651900755672854
vn 0 0.997785158054412 0.06651900755672854
vn 0 0.997785158054412 0.06651900755672854
vn 0 0.997785158054412 0.06651900755672854
vn 0 0.997785158054412 0.06651900755672854
vn 0 0.997785158054412 0.06651900755672854
vn 0 0.997785158054412 0.06651900755672854
vn 0 0.997785158054412 0.06651900755672854
vn 0 0.997785158054412 0.06651900755672854
vn 0 0.997785158054412 0.06651900755672854
vn 0 0.997785158054412 0.06651900755672854
vn 0 0.997785158054412 0.06651900755672854
vn 0 0.997785158054412 0.06651900755672854
vn 0 0.997785158054412 0.06651900755672854
vn 0 0.997785158054412 0.06651900755672854
vn 0 0.997785158054412 0.06651900755672854
vn 0 0.997785158054412 0.06651900755672854
vn 0 0.997785158054412 0.06651900755672854
vn 0 0.997785158054412 0.06651900755672854
vn 0 0.997785158054412 0.06651900755672854
vn 0 0.997785158054412 0.06651900755672854
vn 0 0.997785158054412 0.06651900755672854
vn 0 0.997785158054412 0.06651900755672854
vn 0 0.997785158054412 0.06651900755672854
vn 0 0.997785158054412 0.06651900755672854
vn 0 0.997785158054412 0.06651900755672854
f 1/1/1 14/14/14 2/2/2
f 14/14/14 15/15/15 2/2/2
f 2/2/2 15/15/15 3/3/3
f 15/15/15 16/16/16 3/3/3
f 3/3/3 16/16/16 4/4/4
f 16/16/16 17/17/17 4/4/4
f 4/4/4 17/17/17 5/5/5
f 17/17/17 18/18/18 5/5/5
f 5/5/5 18/18/18 6/6/6
f 18/18/18 19/19/19 6/6/6
f 6/6/6 19/19/19 7/7/7
f 19/19/19 20/20/20 7/7/7
f 7/7/7 20/20/20 8/8/8
f 20/20/20 21/21/21 8/8/8
f 8/8/8 21/21/21 9/9/9
f 21/21/21 22/22/22 9/9/9
f 9/9/9 22/22/22 10/10/10
f 22/22/22 23/23/23 10/10/10
f 10/10/10 23/23/23 11/11/11
f 23/23/23 24/24/24 11/11/11
f 11/11/11 24/24/24 12/12/12
f 24/24/24 25/25/25 12/12/12
f 12/12/12 25/25/25 13/13/13
f 25/25/25 26/26/26 13/13/13
f 39/39/39 40/40/40 27/27/27
f 40/40/40 41/41/41 28/28/28
f 41/41/41 42/42/42 29/29/29
f 42/42/42 43/43/43 30/30/30
f 43/43/43 44/44/44 31/31/31
f 44/44/44 45/45/45 32/32/32
f 45/45/45 46/46/46 33/33/33
f 46/46/46 47/47/47 34/34/34
f 47/47/47 48/48/48 35/35/35
f 48/48/48 49/49/49 36/36/36
f 49/49/49 50/50/50 37/37/37
f 50/50/50 51/51/51 38/38/38
f 65/65/65 64/64/64 52/52/52
f 66/66/66 65/65/65 53/53/53
f 67/67/67 66/66/66 54/54/54
f 68/68/68 67/67/67 55/55/55
f 69/69/69 68/68/68 56/56/56
f 70/70/70 69/69/69 57/57/57
f 71/71/71 70/70/70 58/58/58
f 72/72/72 71/71/71 59/59/59
f 73/73/73 72/72/72 60/60/60
f 74/74/74 73/73/73 61/61/61
f 75/75/75 74/74/74 62/62/62
f 76/76/76 75/75/75 63/63/63
